<svg width="247" height="64" viewBox="0 0 1122 234" version="1.1" xmlns="http://www.w3.org/2000/svg">
    <g id="Artboard1" transform="matrix(1,0,0,1,43.791,46.4468)">
        <rect x="-43.791" y="-46.447" width="1121.85" height="233.081" style="fill:none;"/>
        <g transform="matrix(4.16667,0,0,4.16667,29.2333,131.091)">
            <path d="M0,-0.057C0.005,-0.251 0.008,-0.446 0.008,-0.643C0.008,-0.702 0.01,-0.754 0.012,-0.799C0.014,-0.821 0.019,-0.838 0.027,-0.848C0.03,-0.852 0.043,-0.865 0.081,-0.878C0.107,-0.887 0.16,-0.897 0.257,-0.897C0.316,-0.897 0.37,-0.904 0.418,-0.918C0.51,-0.944 0.565,-1.023 0.565,-1.128C0.565,-1.18 0.542,-1.229 0.497,-1.274L0.459,-1.312L-0.042,-1.312C-0.094,-1.312 -0.148,-1.309 -0.204,-1.303C-0.35,-1.289 -0.483,-1.296 -0.587,-1.31C-0.668,-1.322 -0.762,-1.327 -0.867,-1.327L-0.924,-1.327C-0.958,-1.327 -0.994,-1.324 -1.033,-1.318C-1.128,-1.303 -1.19,-1.231 -1.19,-1.133C-1.19,-0.992 -1.101,-0.939 -1.063,-0.923C-1.017,-0.904 -0.962,-0.892 -0.902,-0.888C-0.858,-0.884 -0.812,-0.878 -0.764,-0.871C-0.739,-0.867 -0.718,-0.856 -0.711,-0.851C-0.711,-0.851 -0.699,-0.831 -0.688,-0.763C-0.679,-0.701 -0.675,-0.644 -0.675,-0.591L-0.675,-0.493C-0.675,-0.408 -0.675,-0.323 -0.677,-0.238C-0.679,-0.151 -0.679,-0.063 -0.679,0.026L-0.685,0.502C-0.685,0.562 -0.689,0.625 -0.697,0.69C-0.703,0.74 -0.715,0.753 -0.72,0.758C-0.738,0.774 -0.762,0.786 -0.792,0.793C-0.842,0.804 -0.889,0.815 -0.935,0.823C-0.988,0.833 -1.034,0.845 -1.074,0.859C-1.159,0.889 -1.211,0.957 -1.211,1.043C-1.211,1.137 -1.161,1.212 -1.078,1.242C-1.032,1.26 -0.983,1.268 -0.934,1.268L-0.862,1.268C-0.806,1.268 -0.758,1.266 -0.716,1.262C-0.675,1.259 -0.638,1.254 -0.602,1.248C-0.572,1.243 -0.54,1.24 -0.505,1.237C-0.404,1.227 -0.247,1.232 -0.107,1.247C0.051,1.264 0.212,1.27 0.36,1.254C0.475,1.243 0.549,1.16 0.549,1.043C0.549,0.954 0.492,0.883 0.399,0.859C0.358,0.847 0.31,0.837 0.256,0.828C0.206,0.819 0.156,0.809 0.103,0.799C0.073,0.794 0.051,0.784 0.037,0.773C0.029,0.765 0.017,0.751 0.01,0.72C0.002,0.675 -0.004,0.632 -0.008,0.59L-0.008,0.523C-0.008,0.327 -0.005,0.134 0,-0.057" style="fill:rgb(44,86,150);fill-rule:nonzero;"/>
        </g>
        <g transform="matrix(4.16667,0,0,4.16667,40.0704,120.974)">
            <path d="M0,3.234C-0.066,3.28 -0.148,3.303 -0.249,3.303C-0.369,3.303 -0.463,3.276 -0.538,3.219C-0.618,3.157 -0.681,3.078 -0.727,2.983C-0.777,2.881 -0.812,2.769 -0.833,2.649C-0.854,2.524 -0.864,2.404 -0.864,2.291C-0.864,2.231 -0.862,2.176 -0.857,2.123L-0.843,1.993C-0.819,1.967 -0.791,1.938 -0.758,1.907C-0.713,1.865 -0.662,1.825 -0.607,1.788C-0.555,1.751 -0.497,1.72 -0.436,1.694C-0.283,1.629 -0.12,1.659 -0.011,1.723C0.063,1.767 0.122,1.822 0.168,1.892C0.217,1.965 0.253,2.051 0.277,2.147C0.303,2.246 0.315,2.349 0.315,2.451C0.315,2.547 0.304,2.65 0.282,2.757C0.26,2.859 0.225,2.953 0.177,3.037C0.131,3.117 0.072,3.183 0,3.234M0.73,1.515C0.634,1.41 0.516,1.325 0.38,1.265C0.158,1.167 -0.125,1.144 -0.374,1.215C-0.467,1.242 -0.554,1.276 -0.633,1.317C-0.656,1.329 -0.678,1.342 -0.7,1.354C-0.646,1.205 -0.58,1.061 -0.502,0.923C-0.364,0.681 -0.185,0.464 0.031,0.278C0.08,0.235 0.13,0.195 0.18,0.158C0.23,0.121 0.282,0.087 0.328,0.059C0.341,0.053 0.363,0.042 0.396,0.028C0.433,0.011 0.469,-0.006 0.503,-0.025C0.544,-0.046 0.58,-0.069 0.612,-0.095C0.669,-0.141 0.698,-0.193 0.698,-0.251C0.698,-0.31 0.673,-0.366 0.628,-0.407C0.602,-0.431 0.577,-0.449 0.552,-0.464L0.517,-0.484L0.478,-0.48C0.426,-0.476 0.371,-0.461 0.309,-0.435C0.257,-0.414 0.212,-0.395 0.172,-0.376C-0.074,-0.262 -0.307,-0.117 -0.519,0.055C-0.733,0.228 -0.923,0.426 -1.083,0.643C-1.245,0.862 -1.373,1.103 -1.464,1.359C-1.556,1.618 -1.603,1.893 -1.603,2.177C-1.603,2.324 -1.587,2.47 -1.556,2.61C-1.525,2.752 -1.476,2.887 -1.411,3.013C-1.344,3.139 -1.258,3.254 -1.154,3.354C-1.049,3.456 -0.922,3.539 -0.772,3.605C-0.592,3.68 -0.409,3.718 -0.229,3.718C-0.042,3.718 0.132,3.679 0.288,3.601C0.44,3.525 0.573,3.42 0.681,3.29C0.789,3.162 0.873,3.015 0.933,2.853C0.993,2.69 1.023,2.518 1.023,2.343C1.023,2.181 0.998,2.028 0.949,1.888C0.899,1.745 0.825,1.62 0.73,1.515" style="fill:rgb(44,86,150);fill-rule:nonzero;"/>
        </g>
        <g transform="matrix(4.16667,0,0,4.16667,53.2304,134.874)">
            <path d="M0,-0.599C-0.098,-0.692 -0.218,-0.763 -0.358,-0.808C-0.4,-0.822 -0.444,-0.833 -0.489,-0.841C-0.431,-0.901 -0.374,-0.967 -0.318,-1.036C-0.247,-1.127 -0.184,-1.222 -0.133,-1.319C-0.075,-1.428 -0.046,-1.53 -0.046,-1.623C-0.046,-1.75 -0.07,-1.86 -0.117,-1.951C-0.164,-2.039 -0.227,-2.113 -0.303,-2.171C-0.378,-2.227 -0.463,-2.268 -0.555,-2.293C-0.733,-2.34 -0.925,-2.346 -1.121,-2.267C-1.213,-2.23 -1.298,-2.183 -1.375,-2.13C-1.454,-2.074 -1.519,-2.014 -1.57,-1.949C-1.633,-1.869 -1.662,-1.789 -1.654,-1.701C-1.647,-1.652 -1.622,-1.608 -1.583,-1.572C-1.541,-1.535 -1.5,-1.527 -1.472,-1.527C-1.431,-1.527 -1.392,-1.544 -1.357,-1.58C-1.282,-1.664 -1.213,-1.732 -1.152,-1.783C-1.066,-1.853 -0.886,-1.868 -0.767,-1.753C-0.71,-1.699 -0.682,-1.607 -0.682,-1.479C-0.682,-1.408 -0.702,-1.336 -0.745,-1.26C-0.793,-1.175 -0.854,-1.094 -0.927,-1.018C-1.002,-0.94 -1.083,-0.868 -1.169,-0.805C-1.255,-0.742 -1.335,-0.69 -1.4,-0.654L-1.5,-0.606C-1.622,-0.547 -1.641,-0.459 -1.641,-0.412C-1.641,-0.283 -1.558,-0.197 -1.436,-0.197C-1.39,-0.197 -1.343,-0.216 -1.275,-0.263C-1.241,-0.285 -1.215,-0.302 -1.187,-0.314C-1.143,-0.337 -1.102,-0.348 -1.059,-0.348L-1.035,-0.347C-0.964,-0.34 -0.896,-0.331 -0.832,-0.318C-0.764,-0.304 -0.704,-0.279 -0.652,-0.242C-0.598,-0.203 -0.553,-0.155 -0.517,-0.098C-0.48,-0.039 -0.45,0.028 -0.429,0.098C-0.408,0.17 -0.398,0.241 -0.398,0.31C-0.398,0.447 -0.426,0.572 -0.48,0.681C-0.536,0.794 -0.613,0.895 -0.71,0.982C-0.808,1.071 -0.926,1.149 -1.059,1.214C-1.192,1.279 -1.334,1.334 -1.48,1.376C-1.527,1.382 -1.567,1.407 -1.592,1.444C-1.614,1.473 -1.628,1.508 -1.632,1.546C-1.637,1.593 -1.626,1.637 -1.599,1.675C-1.58,1.702 -1.536,1.747 -1.452,1.747L-1.449,1.747C-1.255,1.743 -1.053,1.698 -0.849,1.613C-0.646,1.529 -0.459,1.415 -0.292,1.274C-0.123,1.13 0.018,0.962 0.128,0.774C0.242,0.578 0.3,0.368 0.3,0.151C0.3,0.004 0.274,-0.135 0.224,-0.262C0.172,-0.392 0.097,-0.505 0,-0.599" style="fill:rgb(44,86,150);fill-rule:nonzero;"/>
        </g>
        <g transform="matrix(4.16667,0,0,4.16667,65.6979,129.507)">
            <path d="M0,0.645C-0.019,0.602 -0.061,0.543 -0.15,0.508C-0.242,0.471 -0.339,0.501 -0.402,0.589L-0.548,0.799C-0.584,0.85 -0.621,0.903 -0.66,0.957C-0.699,1.011 -0.735,1.06 -0.765,1.099C-0.766,1.1 -0.789,1.119 -0.882,1.139C-0.974,1.158 -1.074,1.171 -1.182,1.175C-1.276,1.179 -1.367,1.179 -1.454,1.175C-1.423,1.143 -1.39,1.108 -1.354,1.069C-1.283,0.994 -1.209,0.909 -1.132,0.816C-1.055,0.723 -0.981,0.628 -0.912,0.53C-0.843,0.433 -0.782,0.337 -0.73,0.246C-0.674,0.147 -0.637,0.06 -0.618,-0.017C-0.535,-0.313 -0.563,-0.559 -0.699,-0.747C-0.837,-0.938 -1.054,-1.035 -1.344,-1.035C-1.398,-1.035 -1.452,-1.032 -1.504,-1.029C-1.564,-1.025 -1.627,-1.013 -1.689,-0.992C-1.754,-0.971 -1.821,-0.938 -1.889,-0.891C-1.956,-0.846 -2.026,-0.783 -2.099,-0.702C-2.113,-0.689 -2.131,-0.667 -2.154,-0.635L-2.206,-0.562C-2.231,-0.529 -2.25,-0.496 -2.266,-0.463C-2.286,-0.42 -2.296,-0.384 -2.296,-0.35C-2.296,-0.286 -2.267,-0.229 -2.214,-0.19C-2.158,-0.15 -2.086,-0.144 -2.024,-0.175C-1.98,-0.197 -1.942,-0.236 -1.91,-0.294C-1.896,-0.321 -1.874,-0.35 -1.846,-0.383C-1.823,-0.409 -1.789,-0.434 -1.744,-0.455C-1.715,-0.469 -1.658,-0.486 -1.55,-0.486C-1.356,-0.486 -1.302,-0.405 -1.285,-0.378C-1.236,-0.305 -1.241,-0.193 -1.296,-0.048C-1.332,0.041 -1.382,0.141 -1.444,0.249C-1.508,0.362 -1.581,0.48 -1.663,0.599C-1.745,0.72 -1.834,0.842 -1.928,0.964C-2.023,1.085 -2.118,1.199 -2.206,1.297C-2.259,1.349 -2.27,1.403 -2.27,1.439C-2.27,1.471 -2.27,1.568 -2.196,1.626C-2.162,1.653 -2.119,1.669 -2.069,1.673L-2.032,1.676C-1.963,1.676 -1.917,1.631 -1.889,1.597C-1.81,1.596 -1.723,1.596 -1.628,1.594C-1.516,1.592 -1.417,1.592 -1.332,1.591C-1.121,1.599 -0.943,1.613 -0.806,1.634C-0.659,1.657 -0.534,1.672 -0.441,1.678L-0.42,1.68C-0.344,1.68 -0.264,1.628 -0.253,1.511C-0.249,1.476 -0.243,1.422 -0.233,1.354C-0.223,1.288 -0.203,1.203 -0.172,1.102C-0.143,1.004 -0.088,0.89 -0.008,0.764L0.027,0.707L0,0.645Z" style="fill:rgb(44,86,150);fill-rule:nonzero;"/>
        </g>
        <g transform="matrix(4.16667,0,0,4.16667,3.23497,10.6574)">
            <path d="M0,4.849L10.183,0L20.366,4.849L0,4.849Z" style="fill:rgb(44,86,150);"/>
        </g>
        <g transform="matrix(-4.16667,0,0,4.16667,164.616,-586.722)">
            <rect x="17.881" y="149.188" width="21.334" height="0.971" style="fill:rgb(44,86,150);"/>
        </g>
        <g transform="matrix(-4.16667,0,0,4.16667,99.9655,-453.368)">
            <rect x="17.88" y="132.216" width="5.82" height="2.91" style="fill:rgb(44,86,150);"/>
        </g>
        <g transform="matrix(-4.16667,0,0,4.16667,229.266,-453.368)">
            <rect x="33.397" y="132.216" width="5.818" height="2.91" style="fill:rgb(44,86,150);"/>
        </g>
        <g transform="matrix(-4.16667,0,0,4.16667,148.453,-453.368)">
            <rect x="25.639" y="132.216" width="1.939" height="2.91" style="fill:rgb(44,86,150);"/>
        </g>
        <g transform="matrix(-4.16667,0,0,4.16667,180.77,-453.368)">
            <rect x="29.517" y="132.216" width="1.939" height="2.91" style="fill:rgb(44,86,150);"/>
        </g>
        <g transform="matrix(0.0831451,4.16584,4.16584,-0.0831451,30.5729,70.7575)">
            <path d="M-6.774,-5.214L5.353,-5.214L5.314,-7.153L-6.803,-6.669L-6.774,-5.214Z" style="fill:rgb(44,86,150);"/>
        </g>
        <g transform="matrix(0.0831451,4.16584,4.16584,-0.0831451,46.7396,70.7616)">
            <path d="M-6.775,-5.214L5.353,-5.214L5.314,-7.153L-6.804,-6.669L-6.775,-5.214Z" style="fill:rgb(44,86,150);"/>
        </g>
        <g transform="matrix(0.0831451,4.16584,4.16584,-0.0831451,62.9009,70.7575)">
            <path d="M-6.774,-5.214L5.353,-5.214L5.314,-7.153L-6.803,-6.669L-6.774,-5.214Z" style="fill:rgb(44,86,150);"/>
        </g>
        <g transform="matrix(0.0831451,4.16584,4.16584,-0.0831451,79.0579,70.7575)">
            <path d="M-6.774,-5.214L5.353,-5.214L5.314,-7.153L-6.803,-6.669L-6.774,-5.214Z" style="fill:rgb(44,86,150);"/>
        </g>
        <g transform="matrix(0.0831451,4.16584,4.16584,-0.0831451,95.2259,70.7616)">
            <path d="M-6.775,-5.214L5.353,-5.214L5.314,-7.153L-6.804,-6.668L-6.775,-5.214Z" style="fill:rgb(44,86,150);"/>
        </g>
        <g transform="matrix(0.0831451,4.16584,4.16584,-0.0831451,111.386,70.7575)">
            <path d="M-6.774,-5.214L5.353,-5.214L5.314,-7.153L-6.803,-6.669L-6.774,-5.214Z" style="fill:rgb(44,86,150);"/>
        </g>
        <g transform="matrix(4.16667,0,0,4.16667,45.6638,26.8116)">
            <path d="M0,-6.302L-10.667,-1.21L-10.667,0L0,-5.09L10.667,0L10.667,-1.21L0,-6.302Z" style="fill:rgb(44,86,150);"/>
        </g>
        <g transform="matrix(4.16667,0,0,4.16667,199.01,94.8616)">
            <path d="M0,-12.518L-0.034,-12.524C-0.328,-12.524 -0.63,-12.515 -0.932,-12.499C-1.509,-12.467 -2.096,-12.463 -2.676,-12.506C-2.972,-12.53 -3.266,-12.541 -3.55,-12.541C-3.646,-12.541 -3.739,-12.528 -3.825,-12.503C-3.895,-12.483 -4.014,-12.417 -4.014,-12.209C-4.014,-11.969 -3.901,-11.853 -3.807,-11.799C-3.692,-11.733 -3.554,-11.684 -3.395,-11.655C-3.245,-11.628 -3.093,-11.602 -2.938,-11.581C-2.8,-11.56 -2.694,-11.514 -2.61,-11.44C-2.53,-11.369 -2.475,-11.226 -2.445,-11.015C-2.413,-10.787 -2.397,-10.522 -2.397,-10.228C-2.397,-9.932 -2.402,-9.625 -2.413,-9.307C-2.424,-8.987 -2.429,-8.7 -2.429,-8.445L-2.429,-4.913C-2.429,-4.593 -2.462,-4.278 -2.527,-3.973C-2.624,-3.426 -2.76,-2.959 -2.932,-2.587C-3.102,-2.221 -3.324,-1.919 -3.592,-1.689C-3.858,-1.458 -4.189,-1.29 -4.574,-1.19C-4.965,-1.088 -5.442,-1.036 -5.993,-1.036C-6.454,-1.036 -6.879,-1.086 -7.255,-1.182C-7.622,-1.276 -7.943,-1.445 -8.211,-1.687C-8.479,-1.93 -8.697,-2.266 -8.861,-2.689C-9.027,-3.116 -9.134,-3.673 -9.177,-4.342C-9.199,-4.676 -9.212,-5.019 -9.217,-5.361C-9.223,-5.701 -9.225,-6.041 -9.225,-6.382L-9.225,-9.419C-9.225,-9.583 -9.223,-9.759 -9.217,-9.945C-9.212,-10.129 -9.201,-10.309 -9.185,-10.482C-9.168,-10.655 -9.15,-10.814 -9.128,-10.955C-9.107,-11.09 -9.081,-11.193 -9.053,-11.26C-8.988,-11.408 -8.881,-11.503 -8.728,-11.55C-8.546,-11.605 -8.364,-11.648 -8.187,-11.68C-7.998,-11.713 -7.825,-11.752 -7.671,-11.797C-7.481,-11.855 -7.377,-11.994 -7.377,-12.191C-7.377,-12.364 -7.478,-12.476 -7.66,-12.506C-7.799,-12.53 -7.913,-12.541 -8.006,-12.541C-8.39,-12.541 -8.773,-12.524 -9.146,-12.49C-9.837,-12.429 -10.594,-12.422 -11.306,-12.49C-11.656,-12.524 -12.011,-12.541 -12.364,-12.541C-12.637,-12.541 -12.794,-12.389 -12.794,-12.126C-12.794,-12.016 -12.749,-11.924 -12.662,-11.862C-12.591,-11.81 -12.505,-11.774 -12.409,-11.754C-12.321,-11.737 -12.235,-11.726 -12.147,-11.719C-12.061,-11.713 -11.991,-11.711 -11.934,-11.711L-11.753,-11.711C-11.563,-11.711 -11.417,-11.66 -11.322,-11.561C-11.217,-11.449 -11.143,-11.32 -11.099,-11.165C-11.053,-11.005 -11.026,-10.829 -11.02,-10.638C-11.015,-10.441 -11.012,-10.266 -11.012,-10.113C-11.012,-9.182 -11.023,-8.25 -11.045,-7.342C-11.068,-6.406 -11.078,-5.473 -11.078,-4.567L-11.078,-3.956C-11.078,-3.855 -11.075,-3.754 -11.069,-3.653C-11.064,-3.552 -11.056,-3.452 -11.044,-3.352C-10.977,-2.701 -10.811,-2.154 -10.552,-1.725C-10.292,-1.296 -9.953,-0.946 -9.546,-0.686C-9.143,-0.428 -8.676,-0.242 -8.158,-0.135C-7.647,-0.03 -7.103,0.023 -6.537,0.023C-6.062,0.023 -5.568,-0.013 -5.07,-0.084C-4.571,-0.157 -4.081,-0.285 -3.611,-0.462C-3.068,-0.677 -2.642,-0.988 -2.346,-1.387C-2.055,-1.779 -1.833,-2.226 -1.687,-2.714C-1.542,-3.2 -1.455,-3.716 -1.428,-4.247C-1.4,-4.779 -1.386,-5.292 -1.386,-5.772C-1.386,-6.068 -1.389,-6.367 -1.394,-6.664C-1.4,-6.961 -1.402,-7.257 -1.402,-7.554C-1.402,-7.885 -1.404,-8.269 -1.411,-8.711C-1.416,-9.149 -1.416,-9.572 -1.411,-9.979C-1.404,-10.385 -1.386,-10.739 -1.354,-11.033C-1.311,-11.427 -1.242,-11.474 -1.237,-11.478C-1.213,-11.492 -1.144,-11.52 -0.953,-11.547C-0.791,-11.57 -0.618,-11.601 -0.442,-11.639C-0.259,-11.68 -0.095,-11.735 0.044,-11.805C0.253,-11.911 0.298,-12.064 0.298,-12.175C0.298,-12.283 0.246,-12.43 0,-12.518" style="fill:rgb(44,86,150);fill-rule:nonzero;"/>
        </g>
        <g transform="matrix(4.16667,0,0,4.16667,266.092,95.4575)">
            <path d="M0,-12.667C-0.275,-12.667 -0.561,-12.659 -0.872,-12.643C-1.503,-12.607 -2.176,-12.61 -2.783,-12.651C-3.135,-12.672 -3.493,-12.683 -3.845,-12.683C-3.95,-12.683 -4.048,-12.661 -4.138,-12.615C-4.216,-12.576 -4.309,-12.489 -4.309,-12.302C-4.309,-12.073 -4.181,-11.933 -3.948,-11.904C-3.764,-11.882 -3.556,-11.868 -3.328,-11.862C-3.113,-11.857 -2.905,-11.825 -2.71,-11.768C-2.543,-11.718 -2.44,-11.595 -2.393,-11.387C-2.362,-11.257 -2.343,-11.12 -2.337,-10.978C-2.332,-10.836 -2.329,-10.689 -2.329,-10.536C-2.329,-9.677 -2.326,-8.819 -2.321,-7.96C-2.315,-7.107 -2.318,-6.241 -2.329,-5.386L-2.329,-3.384C-2.321,-3.21 -2.363,-3.155 -2.403,-3.136C-3.301,-4.208 -4.089,-5.14 -4.767,-5.939C-5.455,-6.747 -6.076,-7.474 -6.632,-8.118C-7.188,-8.761 -7.694,-9.35 -8.151,-9.883C-8.607,-10.417 -9.056,-10.947 -9.503,-11.484C-9.709,-11.679 -9.867,-11.848 -9.971,-11.984C-10.087,-12.134 -10.189,-12.255 -10.283,-12.356C-10.385,-12.462 -10.495,-12.545 -10.611,-12.6C-10.73,-12.655 -10.897,-12.683 -11.107,-12.683C-11.296,-12.683 -11.479,-12.678 -11.651,-12.667C-11.811,-12.656 -11.984,-12.651 -12.18,-12.651C-12.435,-12.651 -12.666,-12.656 -12.885,-12.667C-13.118,-12.678 -13.356,-12.683 -13.6,-12.683C-13.692,-12.683 -13.8,-12.653 -13.932,-12.591C-14.123,-12.5 -14.163,-12.365 -14.163,-12.268C-14.163,-12.143 -14.096,-12.04 -13.975,-11.981C-13.878,-11.932 -13.763,-11.896 -13.634,-11.872C-13.51,-11.85 -13.383,-11.835 -13.257,-11.829C-13.142,-11.824 -13.051,-11.815 -12.99,-11.806C-12.751,-11.765 -12.563,-11.703 -12.431,-11.622C-12.302,-11.542 -12.202,-11.447 -12.134,-11.34C-12.065,-11.232 -12.023,-11.106 -12.008,-10.963C-11.992,-10.808 -11.984,-10.642 -11.984,-10.47C-11.984,-9.156 -11.995,-7.843 -12.017,-6.568L-12.084,-2.663C-12.084,-2.512 -12.089,-2.354 -12.099,-2.191C-12.11,-2.035 -12.139,-1.889 -12.184,-1.756C-12.229,-1.628 -12.298,-1.52 -12.39,-1.433C-12.479,-1.348 -12.609,-1.29 -12.77,-1.262C-12.857,-1.25 -12.964,-1.243 -13.093,-1.237C-13.238,-1.231 -13.365,-1.219 -13.481,-1.203C-13.611,-1.186 -13.725,-1.152 -13.82,-1.102C-13.936,-1.04 -13.998,-0.935 -13.998,-0.798C-13.998,-0.631 -13.91,-0.515 -13.751,-0.47C-13.623,-0.434 -13.514,-0.416 -13.418,-0.416C-13.05,-0.416 -12.677,-0.427 -12.306,-0.449C-11.625,-0.49 -10.954,-0.497 -10.272,-0.449C-9.947,-0.427 -9.622,-0.416 -9.309,-0.416C-9.244,-0.416 -9.172,-0.429 -9.094,-0.454C-8.988,-0.49 -8.927,-0.573 -8.927,-0.683C-8.927,-0.826 -8.982,-0.939 -9.092,-1.02C-9.186,-1.088 -9.284,-1.135 -9.386,-1.161C-9.694,-1.227 -9.964,-1.267 -10.186,-1.278C-10.383,-1.288 -10.544,-1.331 -10.667,-1.405C-10.782,-1.473 -10.869,-1.612 -10.927,-1.816C-10.99,-2.037 -11.022,-2.399 -11.022,-2.894C-11.022,-3.717 -11.028,-4.482 -11.039,-5.166C-11.05,-5.819 -11.059,-6.427 -11.064,-6.989C-11.07,-7.55 -11.078,-8.092 -11.089,-8.615C-11.1,-9.159 -11.105,-9.722 -11.105,-10.288C-11.105,-10.409 -11.098,-10.531 -11.084,-10.653C-10.903,-10.489 -10.736,-10.305 -10.586,-10.104C-10.391,-9.841 -10.198,-9.598 -10.012,-9.381C-9.341,-8.598 -8.747,-7.905 -8.23,-7.302L-7.677,-6.657C-7.045,-5.92 -6.518,-5.31 -6.1,-4.826C-5.683,-4.341 -5.358,-3.964 -5.127,-3.696C-4.895,-3.425 -4.725,-3.227 -4.615,-3.1C-4.505,-2.975 -4.437,-2.895 -4.41,-2.862C-4.379,-2.825 -4.357,-2.801 -4.354,-2.799C-4.024,-2.387 -3.719,-2.014 -3.419,-1.658C-3.105,-1.283 -2.79,-0.909 -2.473,-0.538C-2.44,-0.494 -2.398,-0.441 -2.348,-0.379C-2.297,-0.317 -2.247,-0.259 -2.196,-0.201C-2.137,-0.139 -2.081,-0.088 -2.021,-0.048C-1.962,-0.005 -1.899,0.016 -1.834,0.016C-1.816,0.016 -1.798,0.015 -1.783,0.011C-1.595,-0.018 -1.48,-0.147 -1.459,-0.351C-1.442,-0.515 -1.433,-0.693 -1.433,-0.88C-1.433,-1.97 -1.431,-2.915 -1.426,-3.719C-1.42,-4.522 -1.417,-5.243 -1.417,-5.882L-1.417,-9.298C-1.417,-9.407 -1.414,-9.578 -1.409,-9.807C-1.403,-10.037 -1.392,-10.274 -1.376,-10.521C-1.361,-10.76 -1.33,-10.992 -1.288,-11.209C-1.236,-11.463 -1.179,-11.579 -1.141,-11.63C-1.081,-11.706 -0.975,-11.758 -0.825,-11.781C-0.652,-11.808 -0.478,-11.83 -0.304,-11.847C-0.124,-11.862 0.041,-11.892 0.184,-11.932C0.365,-11.982 0.464,-12.107 0.464,-12.285C0.464,-12.428 0.404,-12.667 0,-12.667" style="fill:rgb(44,86,150);fill-rule:nonzero;"/>
        </g>
        <g transform="matrix(4.16667,0,0,4.16667,290.243,77.37)">
            <path d="M0,-4.41C0.016,-5.113 0.024,-5.807 0.024,-6.476C0.024,-6.671 0.03,-6.841 0.041,-6.98C0.05,-7.104 0.087,-7.205 0.151,-7.288C0.214,-7.369 0.318,-7.429 0.461,-7.468C0.618,-7.509 0.842,-7.53 1.128,-7.53C1.292,-7.53 1.437,-7.548 1.56,-7.584C1.653,-7.609 1.807,-7.694 1.807,-7.961C1.807,-8.007 1.794,-8.062 1.767,-8.133C1.736,-8.204 1.709,-8.25 1.677,-8.281L1.648,-8.309L0.171,-8.309C0.01,-8.309 -0.154,-8.301 -0.317,-8.284C-0.488,-8.268 -0.643,-8.26 -0.787,-8.26C-1.103,-8.26 -1.424,-8.277 -1.741,-8.309C-2.06,-8.342 -2.389,-8.359 -2.717,-8.359L-2.898,-8.359C-2.994,-8.359 -3.097,-8.35 -3.203,-8.333C-3.357,-8.309 -3.445,-8.204 -3.445,-8.044C-3.445,-7.797 -3.327,-7.696 -3.227,-7.654C-3.111,-7.605 -2.969,-7.574 -2.807,-7.564C-2.656,-7.553 -2.499,-7.534 -2.338,-7.507C-2.192,-7.482 -2.07,-7.418 -1.973,-7.324C-1.935,-7.272 -1.881,-7.158 -1.843,-6.906C-1.81,-6.688 -1.794,-6.493 -1.794,-6.311L-1.794,-5.997C-1.794,-5.722 -1.798,-5.448 -1.803,-5.174C-1.808,-4.898 -1.811,-4.617 -1.811,-4.33L-1.828,1.446L-1.828,1.793C-1.828,1.995 -1.841,2.21 -1.869,2.433C-1.892,2.63 -1.949,2.766 -2.043,2.84C-2.14,2.929 -2.261,2.988 -2.41,3.023C-2.574,3.062 -2.728,3.094 -2.876,3.121C-3.026,3.149 -3.161,3.183 -3.279,3.225C-3.481,3.297 -3.512,3.444 -3.512,3.526C-3.512,3.697 -3.433,3.823 -3.289,3.877C-3.174,3.918 -3.055,3.94 -2.932,3.94L-2.701,3.94C-2.364,3.94 -2.059,3.92 -1.795,3.881C-1.307,3.81 -0.643,3.807 -0.005,3.874C0.475,3.925 0.943,3.949 1.428,3.899C1.637,3.878 1.758,3.742 1.758,3.526C1.758,3.441 1.725,3.292 1.502,3.23C1.375,3.196 1.231,3.165 1.071,3.138C0.913,3.111 0.748,3.08 0.578,3.047C0.426,3.017 0.306,2.965 0.223,2.89C0.109,2.786 0.04,2.635 0.015,2.44C-0.012,2.226 -0.024,2.031 -0.024,1.859L-0.024,-2.349C-0.024,-3.043 -0.017,-3.736 0,-4.41" style="fill:rgb(44,86,150);fill-rule:nonzero;"/>
        </g>
        <g transform="matrix(4.16667,0,0,4.16667,357.22,94.8241)">
            <path d="M0,-12.515C-0.25,-12.515 -0.504,-12.501 -0.754,-12.473C-1.317,-12.408 -1.944,-12.425 -2.547,-12.49C-2.914,-12.529 -3.279,-12.547 -3.631,-12.547C-3.746,-12.547 -3.846,-12.509 -3.931,-12.431C-4.018,-12.35 -4.061,-12.251 -4.061,-12.133C-4.061,-11.922 -3.94,-11.778 -3.719,-11.729C-3.535,-11.69 -3.334,-11.659 -3.122,-11.637C-2.916,-11.616 -2.727,-11.573 -2.56,-11.509C-2.475,-11.479 -2.362,-11.408 -2.362,-11.159C-2.362,-11.129 -2.378,-11.01 -2.531,-10.539C-2.645,-10.183 -2.795,-9.748 -2.975,-9.246C-3.157,-8.74 -3.355,-8.192 -3.569,-7.604C-3.784,-7.016 -3.993,-6.458 -4.195,-5.931C-4.399,-5.403 -4.581,-4.932 -4.741,-4.52C-4.912,-4.076 -5.016,-3.816 -5.076,-3.676L-5.135,-3.551C-5.16,-3.494 -5.191,-3.437 -5.225,-3.383C-5.256,-3.336 -5.288,-3.297 -5.327,-3.26C-5.36,-3.299 -5.446,-3.428 -5.635,-3.856C-5.798,-4.225 -5.992,-4.685 -6.211,-5.223C-6.432,-5.761 -6.664,-6.347 -6.913,-6.979C-7.159,-7.612 -7.393,-8.214 -7.613,-8.787C-7.833,-9.357 -8.025,-9.866 -8.19,-10.312C-8.355,-10.756 -8.465,-11.06 -8.52,-11.225C-8.531,-11.258 -8.54,-11.291 -8.551,-11.328C-8.56,-11.357 -8.564,-11.383 -8.564,-11.407C-8.564,-11.539 -8.514,-11.614 -8.403,-11.649C-8.258,-11.696 -8.091,-11.725 -7.908,-11.735C-7.711,-11.746 -7.533,-11.764 -7.38,-11.785C-7.103,-11.825 -7.062,-12 -7.062,-12.101C-7.062,-12.228 -7.114,-12.34 -7.213,-12.425C-7.308,-12.506 -7.42,-12.547 -7.543,-12.547C-7.938,-12.547 -8.327,-12.53 -8.698,-12.498C-9.325,-12.443 -9.982,-12.418 -10.617,-12.498C-10.878,-12.53 -11.148,-12.547 -11.421,-12.547L-11.603,-12.547C-11.724,-12.547 -11.845,-12.527 -11.973,-12.485C-12.173,-12.418 -12.215,-12.283 -12.215,-12.182C-12.215,-11.995 -12.119,-11.864 -11.946,-11.814C-11.81,-11.774 -11.656,-11.738 -11.473,-11.704C-11.299,-11.672 -11.124,-11.623 -10.952,-11.56C-10.795,-11.502 -10.676,-11.385 -10.588,-11.198C-10.032,-10.043 -9.522,-8.861 -9.072,-7.682C-8.622,-6.499 -8.165,-5.313 -7.702,-4.123C-7.449,-3.497 -7.19,-2.858 -6.926,-2.209C-6.663,-1.56 -6.403,-0.921 -6.151,-0.296C-6.128,-0.235 -6.091,-0.172 -6.04,-0.099C-5.977,-0.013 -5.887,0.032 -5.777,0.032C-5.653,0.032 -5.569,0 -5.521,-0.067C-5.488,-0.114 -5.459,-0.174 -5.436,-0.246C-5.035,-1.231 -4.635,-2.236 -4.246,-3.234C-3.87,-4.202 -3.471,-5.207 -3.058,-6.22C-2.811,-6.828 -2.564,-7.418 -2.325,-7.976C-2.075,-8.559 -1.834,-9.152 -1.606,-9.734C-1.574,-9.812 -1.527,-9.931 -1.465,-10.093C-1.406,-10.25 -1.339,-10.411 -1.269,-10.575C-1.197,-10.739 -1.131,-10.894 -1.071,-11.038C-1.013,-11.176 -0.967,-11.271 -0.94,-11.316C-0.852,-11.443 -0.75,-11.525 -0.627,-11.567C-0.492,-11.615 -0.358,-11.649 -0.23,-11.67C-0.091,-11.694 0.032,-11.73 0.133,-11.778C0.224,-11.82 0.332,-11.919 0.332,-12.15C0.332,-12.236 0.307,-12.317 0.256,-12.391C0.198,-12.472 0.109,-12.515 0,-12.515" style="fill:rgb(44,86,150);fill-rule:nonzero;"/>
        </g>
        <g transform="matrix(4.16667,0,0,4.16667,407.737,54.8158)">
            <path d="M0,6.346C-0.125,6.346 -0.248,6.439 -0.374,6.631C-0.48,6.793 -0.593,6.982 -0.707,7.191C-0.82,7.393 -0.944,7.602 -1.076,7.812C-1.2,8.008 -1.334,8.153 -1.473,8.243C-1.552,8.293 -1.656,8.332 -1.782,8.362C-1.914,8.394 -2.059,8.419 -2.214,8.434C-2.373,8.451 -2.539,8.465 -2.714,8.475C-2.887,8.486 -3.045,8.492 -3.186,8.492L-3.697,8.492C-3.796,8.492 -3.96,8.489 -4.191,8.483C-4.42,8.478 -4.659,8.47 -4.907,8.459C-5.143,8.449 -5.376,8.43 -5.6,8.401C-5.855,8.37 -5.974,8.331 -6.026,8.306C-6.129,8.25 -6.204,8.171 -6.255,8.062C-6.312,7.943 -6.354,7.814 -6.379,7.675C-6.406,7.532 -6.422,7.387 -6.427,7.243C-6.433,7.096 -6.435,6.964 -6.435,6.843L-6.435,4.236C-6.435,4.191 -6.437,4.112 -6.444,3.999C-6.449,3.897 -6.446,3.791 -6.436,3.684C-6.426,3.579 -6.41,3.484 -6.388,3.401C-6.372,3.333 -6.347,3.329 -6.331,3.327C-6.291,3.316 -6.225,3.306 -6.137,3.296C-6.046,3.286 -5.951,3.277 -5.854,3.272L-5.823,3.27C-5.734,3.266 -5.65,3.261 -5.574,3.255C-5.488,3.25 -5.418,3.246 -5.364,3.246C-5.155,3.246 -4.915,3.245 -4.644,3.239L-4.546,3.238C-4.318,3.238 -4.096,3.255 -3.886,3.287C-3.653,3.323 -3.448,3.392 -3.278,3.49C-3.121,3.58 -3.026,3.711 -2.988,3.892L-2.975,3.924C-2.95,3.968 -2.926,4.048 -2.905,4.161C-2.883,4.289 -2.858,4.417 -2.831,4.545C-2.802,4.679 -2.764,4.796 -2.717,4.904C-2.64,5.076 -2.526,5.112 -2.443,5.112C-2.333,5.112 -2.248,5.073 -2.19,4.998C-2.14,4.935 -2.109,4.855 -2.095,4.761C-2.084,4.676 -2.081,4.589 -2.086,4.5C-2.092,4.42 -2.094,4.354 -2.094,4.301C-2.094,4.069 -2.1,3.839 -2.111,3.612C-2.122,3.378 -2.128,3.15 -2.128,2.931C-2.128,2.703 -2.122,2.473 -2.111,2.243C-2.1,2.01 -2.094,1.778 -2.094,1.545C-2.094,1.42 -2.101,1.303 -2.111,1.188C-2.128,1.026 -2.237,0.933 -2.41,0.933C-2.565,0.933 -2.645,1.007 -2.685,1.07C-2.726,1.134 -2.764,1.2 -2.798,1.269L-2.808,1.307C-2.828,1.606 -2.906,1.862 -3.039,2.067C-3.168,2.265 -3.378,2.386 -3.68,2.435C-3.968,2.478 -4.269,2.503 -4.574,2.509C-4.881,2.514 -5.183,2.517 -5.48,2.517C-5.548,2.517 -5.632,2.52 -5.732,2.526C-5.828,2.531 -5.928,2.531 -6.028,2.526C-6.13,2.52 -6.218,2.507 -6.297,2.487C-6.354,2.473 -6.397,2.451 -6.427,2.422C-6.444,2.344 -6.452,2.244 -6.452,2.122L-6.452,1.743C-6.452,1.369 -6.455,0.993 -6.46,0.619C-6.466,0.246 -6.468,-0.128 -6.468,-0.501C-6.468,-0.686 -6.462,-0.881 -6.452,-1.082C-6.442,-1.274 -6.408,-1.451 -6.35,-1.605C-6.296,-1.754 -6.212,-1.871 -6.094,-1.965C-5.981,-2.055 -5.807,-2.101 -5.58,-2.101L-4.853,-2.101C-4.633,-2.101 -4.4,-2.097 -4.153,-2.093C-3.91,-2.086 -3.671,-2.073 -3.443,-2.052C-3.206,-2.028 -3.004,-1.999 -2.826,-1.963C-2.651,-1.927 -2.517,-1.882 -2.427,-1.833C-2.291,-1.755 -2.188,-1.638 -2.114,-1.475C-2.032,-1.296 -1.958,-1.112 -1.895,-0.93C-1.828,-0.74 -1.76,-0.573 -1.693,-0.432C-1.587,-0.217 -1.443,-0.17 -1.329,-0.17L-1.326,-0.17C-1.117,-0.194 -1.077,-0.471 -1.063,-0.562C-1.036,-0.758 -1.022,-0.97 -1.022,-1.195C-1.022,-1.391 -1.019,-1.558 -1.013,-1.694C-1.008,-1.833 -1.006,-1.953 -1.006,-2.053C-1.006,-2.247 -1.028,-2.459 -1.074,-2.689C-1.097,-2.777 -1.166,-2.891 -1.369,-2.929C-1.494,-2.951 -1.623,-2.963 -1.75,-2.963L-1.931,-2.963C-2.713,-2.963 -3.466,-2.954 -4.17,-2.938C-4.889,-2.921 -5.641,-2.913 -6.405,-2.913C-6.791,-2.913 -7.173,-2.921 -7.538,-2.938C-7.9,-2.954 -8.279,-2.963 -8.665,-2.963C-8.764,-2.963 -8.883,-2.965 -9.024,-2.97C-9.17,-2.975 -9.309,-2.97 -9.447,-2.954C-9.584,-2.935 -9.7,-2.905 -9.802,-2.864C-9.933,-2.81 -10.005,-2.703 -10.005,-2.564C-10.005,-2.452 -9.96,-2.258 -9.664,-2.209C-9.493,-2.181 -9.298,-2.154 -9.083,-2.126C-8.88,-2.1 -8.691,-2.042 -8.521,-1.955C-8.372,-1.878 -8.29,-1.718 -8.27,-1.455C-8.26,-1.408 -8.255,-1.365 -8.255,-1.327L-8.255,-0.881C-8.255,0.011 -8.249,0.896 -8.239,1.778C-8.228,2.63 -8.222,3.524 -8.222,4.434C-8.222,4.709 -8.216,5.033 -8.205,5.402C-8.195,5.77 -8.189,6.135 -8.189,6.497C-8.189,6.847 -8.205,7.169 -8.238,7.459C-8.269,7.739 -8.324,7.941 -8.402,8.057C-8.49,8.182 -8.618,8.278 -8.785,8.341C-8.959,8.409 -9.146,8.466 -9.34,8.511C-9.528,8.554 -9.697,8.598 -9.843,8.645C-10.072,8.719 -10.12,8.845 -10.12,8.939C-10.12,9.234 -9.949,9.294 -9.846,9.304C-9.722,9.315 -9.598,9.321 -9.474,9.321C-9.307,9.321 -9.142,9.315 -8.98,9.305C-8.823,9.293 -8.669,9.288 -8.517,9.288L-0.726,9.288C-0.504,9.288 -0.337,9.206 -0.23,9.045L-0.216,9.011C-0.138,8.659 -0.075,8.376 -0.026,8.161L0.115,7.55C0.158,7.36 0.185,7.249 0.189,7.234C0.202,7.209 0.216,7.166 0.246,7.031C0.267,6.939 0.276,6.895 0.279,6.872C0.327,6.769 0.341,6.665 0.322,6.56C0.306,6.48 0.244,6.346 0,6.346" style="fill:rgb(44,86,150);fill-rule:nonzero;"/>
        </g>
        <g transform="matrix(4.16667,0,0,4.16667,465.612,45.4074)">
            <path d="M0,11.635C-0.118,11.61 -0.235,11.571 -0.371,11.511C-0.814,11.416 -1.21,11.216 -1.547,10.915C-1.892,10.609 -2.209,10.246 -2.488,9.836C-2.772,9.422 -3.031,8.979 -3.256,8.52C-3.487,8.053 -3.704,7.61 -3.909,7.193C-4.115,6.769 -4.323,6.401 -4.526,6.098C-4.685,5.864 -4.851,5.689 -5.023,5.574C-4.794,5.461 -4.56,5.327 -4.325,5.176C-4.029,4.986 -3.757,4.765 -3.514,4.518C-3.271,4.269 -3.071,3.986 -2.918,3.675C-2.763,3.358 -2.685,3.012 -2.685,2.647C-2.685,1.985 -2.812,1.429 -3.062,0.996C-3.311,0.566 -3.627,0.219 -4,-0.035C-4.371,-0.288 -4.777,-0.466 -5.207,-0.561C-5.63,-0.656 -6.032,-0.704 -6.401,-0.704C-6.828,-0.704 -7.254,-0.696 -7.667,-0.68C-8.078,-0.663 -8.501,-0.655 -8.926,-0.655L-10.362,-0.655C-10.48,-0.655 -10.6,-0.661 -10.725,-0.671C-10.991,-0.693 -11.248,-0.699 -11.482,-0.644C-11.576,-0.622 -11.733,-0.544 -11.733,-0.273C-11.733,-0.133 -11.664,-0.029 -11.536,0.02C-11.438,0.056 -11.315,0.08 -11.17,0.091C-11.033,0.102 -10.887,0.113 -10.732,0.125C-10.588,0.135 -10.45,0.163 -10.322,0.209C-10.202,0.253 -10.107,0.325 -10.031,0.43C-9.956,0.533 -9.918,0.685 -9.918,0.882C-9.918,1.801 -9.926,2.739 -9.942,3.67C-9.959,4.606 -9.967,5.545 -9.967,6.461L-9.967,9.861C-9.967,10.07 -10.006,10.234 -10.083,10.349C-10.162,10.467 -10.264,10.562 -10.386,10.63C-10.514,10.701 -10.651,10.75 -10.793,10.775C-10.946,10.804 -11.091,10.828 -11.228,10.849C-11.367,10.872 -11.485,10.898 -11.58,10.928C-11.757,10.983 -11.784,11.11 -11.784,11.181C-11.784,11.378 -11.749,11.488 -11.67,11.539C-11.608,11.578 -11.505,11.596 -11.336,11.596C-10.995,11.596 -10.65,11.579 -10.311,11.546C-9.607,11.476 -8.866,11.483 -8.144,11.554C-7.756,11.593 -7.353,11.612 -6.946,11.612C-6.711,11.612 -6.539,11.594 -6.42,11.558C-6.332,11.531 -6.185,11.447 -6.185,11.181C-6.185,11.048 -6.253,10.953 -6.372,10.92C-6.457,10.894 -6.547,10.882 -6.648,10.882C-6.715,10.882 -6.736,10.875 -6.736,10.875L-6.76,10.867C-6.982,10.823 -7.184,10.79 -7.362,10.766C-7.526,10.747 -7.667,10.706 -7.781,10.646C-7.889,10.59 -7.972,10.501 -8.035,10.377C-8.099,10.249 -8.131,10.047 -8.131,9.778L-8.131,6.378C-8.131,6.055 -8.093,5.94 -8.071,5.9C-8.057,5.876 -7.998,5.818 -7.754,5.818C-7.381,5.818 -7.066,5.912 -6.816,6.096C-6.556,6.286 -6.326,6.531 -6.13,6.823C-5.931,7.117 -5.751,7.453 -5.594,7.821C-5.435,8.194 -5.259,8.562 -5.075,8.906C-4.741,9.775 -4.247,10.521 -3.605,11.122C-2.963,11.727 -2.155,12.119 -1.198,12.288C-1.121,12.299 -1.027,12.31 -0.914,12.321C-0.802,12.332 -0.688,12.339 -0.574,12.339C-0.286,12.339 -0.08,12.315 0.054,12.266L0.091,12.243C0.213,12.121 0.27,12.019 0.27,11.924C0.27,11.838 0.234,11.685 0,11.635M-4.799,3.85C-4.951,4.169 -5.162,4.422 -5.426,4.603C-5.694,4.787 -6.017,4.915 -6.386,4.983C-6.764,5.053 -7.174,5.088 -7.606,5.088C-7.792,5.088 -7.928,5.074 -8.009,5.046C-8.094,5.016 -8.118,4.972 -8.129,4.941C-8.153,4.877 -8.162,4.793 -8.156,4.691C-8.151,4.574 -8.148,4.431 -8.148,4.265C-8.148,3.826 -8.143,3.331 -8.131,2.783C-8.121,2.232 -8.115,1.735 -8.115,1.294L-8.115,0.733C-8.115,0.495 -8.062,0.315 -7.958,0.198C-7.889,0.12 -7.716,0.026 -7.276,0.026C-6.881,0.026 -6.514,0.082 -6.185,0.193C-5.861,0.304 -5.575,0.469 -5.338,0.683C-5.102,0.899 -4.913,1.169 -4.777,1.483C-4.64,1.801 -4.57,2.177 -4.57,2.599C-4.57,3.109 -4.648,3.529 -4.799,3.85" style="fill:rgb(44,86,150);fill-rule:nonzero;"/>
        </g>
        <g transform="matrix(4.16667,0,0,4.16667,498.124,69.3824)">
            <path d="M0,-0.567C-0.375,-0.809 -0.814,-1.049 -1.306,-1.282C-1.792,-1.511 -2.258,-1.762 -2.692,-2.028C-3.12,-2.291 -3.487,-2.595 -3.783,-2.933C-4.067,-3.259 -4.211,-3.645 -4.211,-4.079C-4.211,-4.361 -4.159,-4.619 -4.055,-4.847C-3.951,-5.074 -3.807,-5.269 -3.627,-5.423C-3.446,-5.579 -3.229,-5.7 -2.984,-5.783C-2.738,-5.866 -2.474,-5.909 -2.2,-5.909C-1.869,-5.909 -1.538,-5.799 -1.217,-5.58C-0.894,-5.363 -0.645,-5.05 -0.471,-4.638C-0.412,-4.54 -0.365,-4.42 -0.335,-4.28C-0.301,-4.132 -0.268,-3.987 -0.234,-3.849C-0.201,-3.71 -0.161,-3.585 -0.113,-3.478C-0.01,-3.243 0.134,-3.276 0.233,-3.257C0.347,-3.225 0.485,-3.223 0.578,-3.315C0.626,-3.362 0.66,-3.438 0.691,-3.577C0.735,-4.153 0.751,-4.733 0.74,-5.301C0.74,-5.419 0.748,-5.561 0.764,-5.72C0.781,-5.887 0.789,-6.051 0.789,-6.209C0.789,-6.368 0.778,-6.508 0.755,-6.624C0.712,-6.84 0.581,-6.871 0.507,-6.871C0.312,-6.871 0.161,-6.809 0.058,-6.686C-0.031,-6.579 -0.104,-6.467 -0.161,-6.353C-0.211,-6.252 -0.262,-6.176 -0.315,-6.124C-0.333,-6.106 -0.357,-6.088 -0.463,-6.146C-0.665,-6.27 -0.914,-6.394 -1.204,-6.517C-1.501,-6.641 -1.776,-6.705 -2.018,-6.705C-2.522,-6.705 -3.008,-6.629 -3.461,-6.478C-3.917,-6.326 -4.32,-6.102 -4.658,-5.815C-4.999,-5.526 -5.271,-5.165 -5.468,-4.742C-5.667,-4.316 -5.767,-3.826 -5.767,-3.287C-5.767,-2.675 -5.619,-2.153 -5.328,-1.736C-5.041,-1.327 -4.681,-0.963 -4.256,-0.656C-3.834,-0.35 -3.372,-0.073 -2.88,0.17C-2.394,0.411 -1.94,0.67 -1.529,0.94C-1.123,1.207 -0.777,1.517 -0.504,1.859C-0.239,2.191 -0.106,2.609 -0.106,3.1C-0.106,3.437 -0.161,3.74 -0.27,4.001C-0.382,4.265 -0.538,4.492 -0.735,4.677C-0.932,4.865 -1.168,5.01 -1.435,5.11C-1.701,5.21 -1.998,5.26 -2.315,5.26C-2.747,5.26 -3.169,5.145 -3.569,4.918C-3.968,4.693 -4.264,4.373 -4.453,3.963C-4.505,3.859 -4.549,3.732 -4.585,3.587C-4.624,3.434 -4.66,3.287 -4.693,3.151C-4.727,3.01 -4.768,2.886 -4.815,2.784C-4.892,2.62 -5.006,2.586 -5.088,2.586C-5.115,2.586 -5.14,2.582 -5.168,2.573C-5.277,2.543 -5.409,2.541 -5.509,2.627C-5.568,2.678 -5.603,2.764 -5.618,2.894C-5.64,3.176 -5.654,3.439 -5.66,3.674C-5.666,3.906 -5.667,4.166 -5.667,4.454C-5.667,4.569 -5.676,4.723 -5.692,4.924C-5.709,5.133 -5.717,5.324 -5.717,5.509C-5.717,5.701 -5.706,5.87 -5.683,6.013C-5.643,6.266 -5.51,6.304 -5.435,6.304C-5.241,6.304 -5.1,6.26 -5.003,6.169C-4.92,6.093 -4.847,6.002 -4.786,5.899C-4.736,5.813 -4.681,5.735 -4.623,5.665C-4.538,5.567 -4.301,5.572 -4.061,5.67C-3.923,5.725 -3.774,5.783 -3.614,5.843C-3.457,5.903 -3.284,5.962 -3.095,6.02C-2.903,6.077 -2.696,6.106 -2.478,6.106C-1.901,6.095 -1.361,6.007 -0.872,5.845C-0.383,5.682 0.046,5.439 0.401,5.123C0.757,4.807 1.038,4.409 1.235,3.94C1.432,3.471 1.532,2.922 1.532,2.306C1.521,1.731 1.381,1.184 1.117,0.677C0.851,0.168 0.475,-0.25 0,-0.567" style="fill:rgb(44,86,150);fill-rule:nonzero;"/>
        </g>
        <g transform="matrix(4.16667,0,0,4.16667,529.203,77.37)">
            <path d="M0,-4.41C0.016,-5.087 0.024,-5.782 0.024,-6.476C0.024,-6.671 0.03,-6.841 0.041,-6.98C0.051,-7.104 0.087,-7.205 0.151,-7.288C0.214,-7.369 0.318,-7.429 0.461,-7.468C0.618,-7.509 0.842,-7.53 1.128,-7.53C1.292,-7.53 1.437,-7.548 1.56,-7.584C1.653,-7.609 1.807,-7.694 1.807,-7.961C1.807,-8.007 1.794,-8.062 1.767,-8.133C1.736,-8.204 1.709,-8.25 1.677,-8.281L1.648,-8.309L0.171,-8.309C0.01,-8.309 -0.154,-8.301 -0.317,-8.284C-0.488,-8.268 -0.643,-8.26 -0.787,-8.26C-1.103,-8.26 -1.424,-8.277 -1.742,-8.309C-2.06,-8.342 -2.388,-8.359 -2.717,-8.359L-2.898,-8.359C-2.994,-8.359 -3.097,-8.35 -3.203,-8.333C-3.357,-8.309 -3.445,-8.204 -3.445,-8.044C-3.445,-7.797 -3.327,-7.696 -3.227,-7.654C-3.111,-7.605 -2.969,-7.574 -2.807,-7.564C-2.656,-7.553 -2.498,-7.534 -2.338,-7.507C-2.194,-7.482 -2.068,-7.416 -1.973,-7.324C-1.935,-7.272 -1.881,-7.158 -1.843,-6.906C-1.81,-6.688 -1.794,-6.493 -1.794,-6.311L-1.794,-5.997C-1.794,-5.722 -1.798,-5.448 -1.803,-5.175C-1.809,-4.899 -1.811,-4.617 -1.811,-4.33L-1.828,1.446L-1.828,1.793C-1.828,1.995 -1.841,2.21 -1.868,2.433C-1.892,2.63 -1.949,2.766 -2.043,2.84C-2.139,2.927 -2.263,2.988 -2.411,3.023C-2.574,3.062 -2.729,3.094 -2.876,3.121C-3.024,3.149 -3.159,3.183 -3.279,3.225C-3.481,3.297 -3.512,3.444 -3.512,3.526C-3.512,3.697 -3.433,3.823 -3.289,3.877C-3.174,3.918 -3.055,3.94 -2.932,3.94L-2.7,3.94C-2.364,3.94 -2.059,3.92 -1.795,3.881C-1.308,3.811 -0.643,3.807 -0.005,3.874C0.475,3.925 0.943,3.949 1.428,3.899C1.637,3.877 1.758,3.741 1.758,3.526C1.758,3.441 1.725,3.292 1.502,3.23C1.375,3.196 1.231,3.165 1.071,3.138C0.912,3.111 0.748,3.08 0.578,3.047C0.426,3.017 0.306,2.965 0.223,2.89C0.109,2.786 0.04,2.635 0.015,2.44C-0.011,2.227 -0.024,2.032 -0.024,1.859L-0.024,-2.349C-0.024,-3.055 -0.017,-3.749 0,-4.41" style="fill:rgb(44,86,150);fill-rule:nonzero;"/>
        </g>
        <g transform="matrix(4.16667,0,0,4.16667,590.47,93.72)">
            <path d="M0,-12.877C-0.064,-12.877 -0.156,-12.85 -0.234,-12.723C-0.277,-12.652 -0.329,-12.576 -0.394,-12.49C-0.454,-12.41 -0.527,-12.331 -0.611,-12.257C-0.684,-12.194 -0.778,-12.152 -0.888,-12.134C-1.051,-12.112 -1.217,-12.099 -1.381,-12.093C-2.097,-12.072 -2.768,-12.082 -3.411,-12.069C-4.498,-12.043 -5.777,-12.047 -6.962,-12.077C-7.628,-12.093 -8.309,-12.117 -8.988,-12.151C-9.133,-12.16 -9.246,-12.192 -9.325,-12.249C-9.409,-12.308 -9.477,-12.37 -9.526,-12.434C-9.579,-12.504 -9.625,-12.565 -9.663,-12.62C-9.736,-12.724 -9.825,-12.745 -9.885,-12.745C-10.056,-12.745 -10.19,-12.7 -10.285,-12.611C-10.374,-12.528 -10.441,-12.422 -10.485,-12.298C-10.526,-12.181 -10.553,-12.047 -10.564,-11.902L-10.569,-11.845C-10.579,-11.729 -10.588,-11.619 -10.597,-11.515C-10.652,-10.949 -10.723,-10.508 -10.808,-10.203C-10.898,-9.884 -10.944,-9.622 -10.944,-9.426C-10.944,-9.272 -10.905,-9.164 -10.824,-9.1C-10.75,-9.041 -10.648,-9.012 -10.513,-9.012C-10.424,-9.012 -10.345,-9.088 -10.22,-9.292C-10.122,-9.455 -10.023,-9.631 -9.929,-9.817C-9.828,-10.009 -9.736,-10.194 -9.648,-10.371C-9.543,-10.578 -9.484,-10.66 -9.453,-10.69C-9.247,-10.886 -9.03,-11.02 -8.809,-11.087C-8.583,-11.155 -8.346,-11.19 -8.104,-11.19L-7.08,-11.19C-6.819,-11.19 -6.575,-11.171 -6.354,-11.133C-6.148,-11.099 -6.065,-11.045 -6.057,-11.007C-6.047,-10.96 -6.04,-10.865 -6.034,-10.719C-6.029,-10.571 -6.026,-10.47 -6.026,-10.416L-6.026,-2.428C-6.026,-2.125 -6.042,-1.869 -6.074,-1.668C-6.105,-1.476 -6.165,-1.315 -6.254,-1.191C-6.341,-1.07 -6.473,-0.974 -6.648,-0.904C-6.828,-0.832 -7.077,-0.779 -7.402,-0.744C-7.426,-0.737 -7.478,-0.73 -7.592,-0.73C-7.712,-0.73 -7.83,-0.709 -7.942,-0.665C-8.039,-0.627 -8.155,-0.535 -8.155,-0.316C-8.155,-0.071 -7.995,-0.025 -7.925,-0.017C-7.828,-0.006 -7.733,0 -7.642,0C-7.245,0 -6.846,-0.013 -6.454,-0.042C-5.667,-0.098 -4.765,-0.092 -3.975,-0.041C-3.54,-0.013 -3.097,0 -2.657,0C-2.519,0 -2.401,-0.006 -2.313,-0.018C-2.178,-0.036 -2.11,-0.164 -2.11,-0.397C-2.11,-0.505 -2.159,-0.691 -2.488,-0.729L-3.141,-0.804C-3.373,-0.83 -3.595,-0.893 -3.802,-0.994C-3.992,-1.083 -4.108,-1.262 -4.159,-1.539C-4.191,-1.708 -4.209,-1.881 -4.215,-2.052C-4.22,-2.226 -4.223,-2.402 -4.223,-2.574C-4.201,-3.549 -4.204,-4.529 -4.231,-5.485C-4.258,-6.446 -4.261,-7.421 -4.239,-8.384L-4.206,-10.399C-4.206,-10.645 -4.193,-10.83 -4.167,-10.948C-4.137,-11.087 -4.099,-11.141 -4.079,-11.162C-4.054,-11.188 -4.028,-11.199 -3.988,-11.199L-3.987,-11.199C-3.841,-11.186 -3.683,-11.188 -3.428,-11.199C-3.122,-11.212 -2.707,-11.21 -2.292,-11.182C-2.046,-11.166 -1.814,-11.138 -1.602,-11.101C-1.392,-11.064 -1.209,-11.005 -1.061,-10.929C-0.924,-10.858 -0.832,-10.767 -0.787,-10.659C-0.726,-10.508 -0.701,-10.346 -0.711,-10.175C-0.722,-9.988 -0.736,-9.817 -0.752,-9.659C-0.77,-9.486 -0.767,-9.346 -0.742,-9.231C-0.723,-9.143 -0.656,-8.995 -0.412,-8.995C-0.198,-8.995 -0.046,-9.142 0.04,-9.431C0.112,-9.677 0.169,-9.971 0.208,-10.306C0.246,-10.634 0.279,-10.976 0.307,-11.325C0.333,-11.657 0.383,-11.929 0.458,-12.131C0.511,-12.274 0.508,-12.43 0.45,-12.595C0.407,-12.723 0.293,-12.877 0,-12.877" style="fill:rgb(44,86,150);fill-rule:nonzero;"/>
        </g>
        <g transform="matrix(4.16667,0,0,4.16667,652.812,93.2783)">
            <path d="M0,-12.069C-0.141,-12.129 -0.296,-12.16 -0.462,-12.16C-0.746,-12.16 -1.036,-12.14 -1.325,-12.101C-1.835,-12.031 -2.39,-12.027 -2.907,-12.092C-3.161,-12.127 -3.421,-12.144 -3.679,-12.144C-3.798,-12.144 -3.893,-12.134 -3.962,-12.115C-4.072,-12.086 -4.128,-11.978 -4.128,-11.795C-4.128,-11.592 -4.016,-11.459 -3.813,-11.423C-3.654,-11.394 -3.481,-11.374 -3.298,-11.365C-3.119,-11.353 -2.962,-11.324 -2.819,-11.277C-2.744,-11.253 -2.658,-11.202 -2.657,-11.026C-2.659,-11.016 -2.676,-10.953 -2.84,-10.694C-2.97,-10.489 -3.134,-10.241 -3.343,-9.938C-3.546,-9.641 -3.768,-9.319 -4.01,-8.973C-4.262,-8.612 -4.491,-8.294 -4.711,-8.002C-4.935,-7.699 -5.133,-7.434 -5.304,-7.21C-5.471,-6.988 -5.587,-6.844 -5.649,-6.783C-5.67,-6.762 -5.697,-6.736 -5.734,-6.705C-5.75,-6.692 -5.764,-6.682 -5.775,-6.675C-5.793,-6.686 -5.808,-6.698 -5.817,-6.712C-5.846,-6.752 -5.876,-6.794 -5.912,-6.841C-6.197,-7.193 -6.474,-7.56 -6.733,-7.933C-6.997,-8.312 -7.261,-8.695 -7.527,-9.083C-7.626,-9.214 -7.75,-9.377 -7.9,-9.572C-8.041,-9.754 -8.184,-9.952 -8.325,-10.16C-8.465,-10.367 -8.582,-10.555 -8.683,-10.739C-8.778,-10.909 -8.827,-11.047 -8.827,-11.152C-8.827,-11.256 -8.786,-11.305 -8.679,-11.325C-8.528,-11.351 -8.363,-11.367 -8.19,-11.372C-8.006,-11.377 -7.831,-11.394 -7.673,-11.423C-7.47,-11.459 -7.358,-11.597 -7.358,-11.811C-7.358,-11.902 -7.415,-11.987 -7.527,-12.061C-7.629,-12.128 -7.714,-12.16 -7.79,-12.16C-8.212,-12.16 -8.646,-12.14 -9.078,-12.102C-9.786,-12.037 -10.534,-12.008 -11.225,-12.11C-11.526,-12.154 -11.836,-12.176 -12.146,-12.176C-12.235,-12.176 -12.32,-12.171 -12.41,-12.159C-12.47,-12.15 -12.611,-12.105 -12.611,-11.878C-12.611,-11.713 -12.521,-11.593 -12.359,-11.542C-12.243,-11.505 -12.098,-11.466 -11.913,-11.424C-11.753,-11.388 -11.583,-11.334 -11.393,-11.256C-11.226,-11.187 -11.086,-11.071 -10.976,-10.912C-10.379,-10.051 -9.782,-9.204 -9.2,-8.394C-8.6,-7.557 -8.003,-6.711 -7.426,-5.877C-7.305,-5.704 -7.24,-5.517 -7.23,-5.304C-7.219,-5.064 -7.214,-4.777 -7.214,-4.45L-7.214,-2.998C-7.214,-2.8 -7.216,-2.592 -7.222,-2.374C-7.228,-2.142 -7.239,-1.941 -7.255,-1.76C-7.27,-1.574 -7.294,-1.407 -7.326,-1.263C-7.357,-1.129 -7.395,-1.034 -7.435,-0.987C-7.541,-0.872 -7.685,-0.799 -7.864,-0.771C-8.066,-0.738 -8.264,-0.707 -8.456,-0.68C-8.656,-0.652 -8.825,-0.604 -8.957,-0.538C-9.052,-0.491 -9.197,-0.369 -9.11,-0.092C-9.105,-0.001 -9.053,0.065 -8.968,0.088C-8.914,0.101 -8.868,0.107 -8.829,0.107C-8.432,0.107 -8.032,0.087 -7.639,0.048C-6.843,-0.03 -5.999,-0.023 -5.182,0.048C-4.747,0.087 -4.308,0.107 -3.878,0.107C-3.679,0.107 -3.587,0.016 -3.542,-0.059C-3.49,-0.151 -3.463,-0.257 -3.463,-0.374L-3.47,-0.411C-3.526,-0.551 -3.63,-0.644 -3.771,-0.678C-3.884,-0.706 -4.018,-0.724 -4.18,-0.731C-4.327,-0.736 -4.48,-0.744 -4.639,-0.756C-4.785,-0.765 -4.92,-0.801 -5.038,-0.86C-5.151,-0.917 -5.245,-1.014 -5.325,-1.157C-5.403,-1.301 -5.444,-1.514 -5.444,-1.793L-5.444,-5.077C-5.444,-5.302 -5.383,-5.544 -5.263,-5.794C-5.142,-6.047 -4.986,-6.305 -4.795,-6.56C-4.604,-6.816 -4.401,-7.07 -4.189,-7.313C-3.958,-7.581 -3.766,-7.812 -3.6,-8.02C-3.215,-8.514 -2.832,-9.011 -2.452,-9.505C-2.086,-9.983 -1.691,-10.471 -1.275,-10.954C-1.165,-11.084 -1.046,-11.173 -0.919,-11.222C-0.786,-11.274 -0.653,-11.311 -0.529,-11.332C-0.394,-11.354 -0.27,-11.379 -0.156,-11.408C-0.017,-11.442 0.082,-11.519 0.142,-11.637C0.188,-11.738 0.198,-11.829 0.169,-11.907C0.142,-11.978 0.085,-12.032 0,-12.069" style="fill:rgb(44,86,150);fill-rule:nonzero;"/>
        </g>
        <g transform="matrix(4.16667,0,0,4.16667,706.574,89.2658)">
            <path d="M0,-6.802C-0.43,-7.202 -0.935,-7.517 -1.5,-7.737C-2.068,-7.958 -2.678,-8.071 -3.313,-8.071C-3.974,-8.071 -4.59,-7.95 -5.147,-7.712C-5.704,-7.475 -6.193,-7.141 -6.6,-6.722C-7.008,-6.302 -7.329,-5.8 -7.555,-5.226C-7.78,-4.654 -7.895,-4.026 -7.895,-3.359C-7.895,-2.692 -7.782,-2.07 -7.561,-1.51C-7.338,-0.948 -7.025,-0.455 -6.63,-0.045C-6.235,0.367 -5.753,0.693 -5.2,0.923C-4.647,1.153 -4.036,1.269 -3.385,1.269C-2.724,1.269 -2.095,1.141 -1.514,0.887C-0.935,0.634 -0.423,0.287 0.009,-0.144C0.439,-0.575 0.782,-1.085 1.027,-1.661C1.274,-2.238 1.399,-2.856 1.399,-3.502C1.399,-4.178 1.272,-4.803 1.022,-5.361C0.771,-5.917 0.428,-6.402 0,-6.802M-0.17,-2.613C-0.178,-2.126 -0.26,-1.658 -0.413,-1.224C-0.566,-0.794 -0.809,-0.415 -1.137,-0.099C-1.461,0.214 -1.911,0.423 -2.475,0.523C-2.696,0.564 -2.909,0.584 -3.108,0.584C-3.432,0.584 -3.733,0.53 -4,0.422C-4.435,0.247 -4.811,-0.017 -5.116,-0.36C-5.423,-0.708 -5.676,-1.114 -5.865,-1.567C-6.056,-2.029 -6.192,-2.493 -6.268,-2.95C-6.354,-3.393 -6.395,-3.86 -6.392,-4.339C-6.387,-4.813 -6.309,-5.263 -6.159,-5.677C-6.011,-6.089 -5.77,-6.452 -5.444,-6.756C-5.118,-7.057 -4.663,-7.265 -4.092,-7.372C-3.876,-7.412 -3.668,-7.432 -3.47,-7.432C-3.177,-7.432 -2.899,-7.387 -2.645,-7.299C-2.218,-7.149 -1.841,-6.913 -1.524,-6.597C-1.205,-6.277 -0.938,-5.889 -0.731,-5.444C-0.521,-4.994 -0.368,-4.514 -0.275,-4.019C-0.198,-3.575 -0.161,-3.102 -0.17,-2.613" style="fill:rgb(44,86,150);fill-rule:nonzero;"/>
        </g>
        <g transform="matrix(4.16667,0,0,4.16667,741.691,93.57)">
            <path d="M0,-8.878C-0.014,-8.878 -0.043,-8.879 -0.087,-8.883C-0.137,-8.887 -0.196,-8.89 -0.262,-8.89L-0.522,-8.89C-0.888,-8.89 -1.248,-8.887 -1.606,-8.883C-1.962,-8.879 -2.322,-8.878 -2.685,-8.878L-4.527,-8.878C-4.59,-8.878 -4.707,-8.879 -4.876,-8.883C-5.048,-8.887 -5.228,-8.89 -5.419,-8.89C-5.627,-8.89 -5.788,-8.887 -5.904,-8.883C-6.029,-8.879 -6.124,-8.865 -6.195,-8.843C-6.281,-8.814 -6.337,-8.772 -6.366,-8.714C-6.388,-8.667 -6.399,-8.614 -6.399,-8.551C-6.399,-8.435 -6.339,-8.35 -6.235,-8.318C-6.165,-8.295 -6.08,-8.282 -5.977,-8.277C-5.886,-8.274 -5.788,-8.267 -5.683,-8.26C-5.589,-8.253 -5.501,-8.23 -5.421,-8.193C-5.348,-8.157 -5.284,-8.098 -5.231,-8.015C-5.179,-7.934 -5.152,-7.805 -5.152,-7.635C-5.152,-6.876 -5.146,-6.11 -5.134,-5.292C-5.122,-4.555 -5.116,-3.789 -5.116,-2.953L-5.116,-2.514C-5.116,-2.372 -5.118,-2.215 -5.122,-2.047C-5.126,-1.877 -5.133,-1.711 -5.14,-1.55C-5.147,-1.39 -5.16,-1.249 -5.175,-1.124C-5.194,-0.973 -5.214,-0.917 -5.228,-0.888C-5.279,-0.76 -5.367,-0.689 -5.523,-0.661C-5.561,-0.648 -5.626,-0.635 -5.722,-0.623C-5.823,-0.611 -5.921,-0.597 -6.018,-0.581C-6.125,-0.563 -6.219,-0.533 -6.295,-0.495C-6.438,-0.424 -6.459,-0.315 -6.459,-0.256C-6.459,-0.118 -6.377,-0.025 -6.24,-0.007C-6.148,0.006 -6.069,0.012 -6.002,0.012C-5.775,0.012 -5.548,-0.002 -5.329,-0.031C-4.851,-0.092 -4.305,-0.077 -3.801,-0.031C-3.507,-0.002 -3.208,0.012 -2.912,0.012L-2.793,0.012C-2.702,0.012 -2.611,-0.004 -2.527,-0.036C-2.411,-0.079 -2.347,-0.164 -2.347,-0.28C-2.347,-0.438 -2.438,-0.547 -2.603,-0.587C-2.727,-0.614 -2.871,-0.637 -3.032,-0.653C-3.185,-0.669 -3.338,-0.699 -3.482,-0.744C-3.61,-0.784 -3.701,-0.864 -3.766,-1C-3.766,-1.001 -3.775,-1.02 -3.779,-1.093C-3.783,-1.166 -3.789,-1.248 -3.798,-1.34C-3.805,-1.428 -3.809,-1.518 -3.809,-1.609L-3.809,-2.133C-3.809,-2.49 -3.805,-2.84 -3.798,-3.189C-3.789,-3.538 -3.785,-3.891 -3.785,-4.248C-3.785,-4.306 -3.763,-4.328 -3.74,-4.343C-3.693,-4.375 -3.637,-4.395 -3.569,-4.404C-3.492,-4.416 -3.414,-4.419 -3.331,-4.415C-3.242,-4.411 -3.17,-4.409 -3.114,-4.409L-2.793,-4.409C-2.613,-4.409 -2.411,-4.403 -2.193,-4.391C-1.98,-4.38 -1.821,-4.355 -1.715,-4.318C-1.565,-4.277 -1.46,-4.203 -1.395,-4.091C-1.319,-3.961 -1.262,-3.83 -1.226,-3.704L-1.119,-3.33C-1.06,-3.121 -0.928,-3.09 -0.856,-3.09C-0.742,-3.09 -0.68,-3.146 -0.648,-3.192C-0.612,-3.245 -0.585,-3.307 -0.572,-3.381C-0.558,-3.454 -0.555,-3.521 -0.559,-3.583C-0.563,-3.64 -0.565,-3.692 -0.565,-3.738C-0.565,-3.916 -0.571,-4.091 -0.582,-4.256C-0.594,-4.412 -0.6,-4.577 -0.6,-4.759C-0.6,-4.932 -0.596,-5.102 -0.589,-5.266C-0.58,-5.434 -0.576,-5.605 -0.576,-5.782C-0.576,-5.832 -0.584,-5.895 -0.596,-5.964C-0.618,-6.106 -0.713,-6.157 -0.796,-6.157C-0.961,-6.157 -1.045,-6.074 -1.085,-6.005C-1.13,-5.93 -1.164,-5.842 -1.191,-5.734C-1.214,-5.641 -1.243,-5.541 -1.278,-5.432C-1.309,-5.338 -1.358,-5.255 -1.426,-5.188C-1.47,-5.145 -1.538,-5.109 -1.627,-5.082C-1.726,-5.053 -1.843,-5.028 -1.982,-5.008C-2.114,-4.989 -2.252,-4.978 -2.404,-4.974C-2.553,-4.969 -2.694,-4.968 -2.829,-4.968L-3.256,-4.968C-3.345,-4.968 -3.428,-4.965 -3.505,-4.961L-3.538,-4.96C-3.587,-4.96 -3.631,-4.967 -3.67,-4.981C-3.706,-4.992 -3.735,-5.017 -3.758,-5.055C-3.773,-5.08 -3.798,-5.143 -3.798,-5.282C-3.798,-5.639 -3.799,-5.996 -3.803,-6.353C-3.807,-6.709 -3.809,-7.066 -3.809,-7.421C-3.809,-7.577 -3.799,-7.723 -3.78,-7.854C-3.764,-7.963 -3.699,-8.055 -3.586,-8.131C-3.538,-8.159 -3.437,-8.198 -3.226,-8.224C-3.037,-8.248 -2.873,-8.26 -2.721,-8.26L-2.46,-8.26C-2.373,-8.26 -2.258,-8.257 -2.112,-8.253C-1.967,-8.249 -1.819,-8.242 -1.665,-8.23C-1.512,-8.219 -1.365,-8.204 -1.224,-8.189C-1.09,-8.174 -0.986,-8.152 -0.914,-8.123C-0.765,-8.069 -0.665,-7.983 -0.609,-7.861C-0.545,-7.723 -0.499,-7.582 -0.474,-7.445C-0.445,-7.293 -0.415,-7.164 -0.382,-7.05C-0.338,-6.895 -0.225,-6.81 -0.06,-6.81C0.041,-6.81 0.097,-6.857 0.128,-6.897C0.162,-6.943 0.185,-6.998 0.195,-7.061C0.203,-7.113 0.208,-7.17 0.208,-7.232L0.208,-7.387C0.208,-7.448 0.21,-7.555 0.214,-7.704C0.218,-7.856 0.218,-8.01 0.214,-8.168C0.21,-8.322 0.199,-8.466 0.183,-8.592C0.169,-8.711 0.137,-8.851 0,-8.878" style="fill:rgb(44,86,150);fill-rule:nonzero;"/>
        </g>
        <g transform="matrix(4.16667,0,0,4.16667,814.691,87.2575)">
            <path d="M0,-9.773C0.027,-10.108 0.078,-10.38 0.152,-10.58C0.204,-10.722 0.201,-10.878 0.143,-11.043C0.1,-11.172 -0.014,-11.325 -0.307,-11.325C-0.37,-11.325 -0.463,-11.298 -0.541,-11.17C-0.584,-11.101 -0.637,-11.024 -0.701,-10.939C-0.76,-10.858 -0.834,-10.78 -0.917,-10.707C-0.991,-10.642 -1.083,-10.601 -1.194,-10.582C-1.357,-10.56 -1.523,-10.548 -1.688,-10.542C-2.404,-10.519 -3.075,-10.531 -3.717,-10.517C-4.805,-10.491 -6.082,-10.495 -7.269,-10.526C-7.934,-10.541 -8.616,-10.566 -9.295,-10.6C-9.44,-10.609 -9.553,-10.642 -9.631,-10.697C-9.716,-10.757 -9.783,-10.819 -9.833,-10.883C-9.886,-10.952 -9.932,-11.013 -9.97,-11.069C-10.044,-11.172 -10.132,-11.194 -10.193,-11.194C-10.362,-11.194 -10.496,-11.149 -10.592,-11.06C-10.682,-10.975 -10.749,-10.87 -10.791,-10.747C-10.833,-10.63 -10.86,-10.496 -10.871,-10.35C-10.882,-10.213 -10.893,-10.084 -10.904,-9.963C-10.958,-9.4 -11.029,-8.959 -11.116,-8.652C-11.206,-8.327 -11.251,-8.073 -11.251,-7.874C-11.251,-7.719 -11.211,-7.613 -11.131,-7.548C-11.057,-7.489 -10.955,-7.46 -10.82,-7.46C-10.731,-7.46 -10.652,-7.536 -10.527,-7.741C-10.427,-7.905 -10.33,-8.081 -10.235,-8.266C-10.135,-8.459 -10.042,-8.643 -9.954,-8.82C-9.849,-9.027 -9.79,-9.109 -9.76,-9.139C-9.554,-9.335 -9.337,-9.468 -9.116,-9.536C-8.89,-9.604 -8.652,-9.639 -8.411,-9.639L-7.387,-9.639C-7.126,-9.639 -6.882,-9.62 -6.661,-9.582C-6.395,-9.538 -6.367,-9.467 -6.363,-9.455C-6.352,-9.399 -6.345,-9.271 -6.34,-9.168C-6.336,-9.02 -6.333,-8.919 -6.333,-8.865L-6.333,-0.877C-6.333,-0.575 -6.349,-0.32 -6.381,-0.117C-6.41,0.075 -6.471,0.236 -6.561,0.36C-6.648,0.481 -6.781,0.578 -6.954,0.647C-7.135,0.719 -7.384,0.773 -7.709,0.808C-7.733,0.814 -7.785,0.821 -7.898,0.821C-8.019,0.821 -8.136,0.843 -8.25,0.886C-8.347,0.925 -8.462,1.016 -8.462,1.235C-8.462,1.481 -8.301,1.526 -8.232,1.534C-8.134,1.545 -8.039,1.552 -7.949,1.552C-7.552,1.552 -7.152,1.538 -6.761,1.51C-5.974,1.454 -5.069,1.459 -4.283,1.511C-3.848,1.538 -3.404,1.552 -2.964,1.552C-2.826,1.552 -2.708,1.546 -2.62,1.534C-2.485,1.515 -2.417,1.387 -2.417,1.154C-2.417,1.046 -2.466,0.86 -2.795,0.822L-3.448,0.747C-3.68,0.721 -3.902,0.658 -4.109,0.558C-4.299,0.468 -4.415,0.29 -4.465,0.012C-4.497,-0.154 -4.516,-0.326 -4.521,-0.5C-4.527,-0.674 -4.53,-0.85 -4.53,-1.022C-4.507,-1.985 -4.511,-2.963 -4.538,-3.933C-4.565,-4.879 -4.568,-5.854 -4.546,-6.833L-4.513,-8.848C-4.513,-9.096 -4.5,-9.28 -4.474,-9.397C-4.444,-9.536 -4.406,-9.59 -4.386,-9.61C-4.359,-9.637 -4.332,-9.649 -4.293,-9.648C-4.15,-9.634 -3.989,-9.637 -3.735,-9.648C-3.428,-9.66 -3.013,-9.658 -2.599,-9.63C-2.353,-9.614 -2.122,-9.586 -1.909,-9.55C-1.699,-9.512 -1.516,-9.455 -1.368,-9.378C-1.231,-9.307 -1.139,-9.216 -1.093,-9.108C-1.033,-8.957 -1.007,-8.794 -1.018,-8.624C-1.029,-8.437 -1.043,-8.266 -1.059,-8.107C-1.076,-7.935 -1.073,-7.795 -1.049,-7.68C-1.03,-7.591 -0.962,-7.443 -0.719,-7.443C-0.572,-7.443 -0.374,-7.519 -0.267,-7.88C-0.196,-8.122 -0.139,-8.417 -0.098,-8.755C-0.06,-9.088 -0.027,-9.431 0,-9.773" style="fill:rgb(44,86,150);fill-rule:nonzero;"/>
        </g>
        <g transform="matrix(4.16667,0,0,4.16667,865.629,44.2908)">
            <path d="M0,11.113C-0.136,11.073 -0.295,11.036 -0.471,11.004C-0.641,10.971 -0.816,10.923 -0.992,10.86C-1.148,10.803 -1.267,10.685 -1.356,10.498C-1.915,9.336 -2.453,8.154 -2.955,6.986C-3.452,5.831 -3.941,4.633 -4.406,3.422C-4.66,2.796 -4.918,2.158 -5.182,1.508C-5.446,0.859 -5.705,0.221 -5.958,-0.407C-5.983,-0.467 -6.02,-0.532 -6.069,-0.602C-6.133,-0.688 -6.224,-0.734 -6.332,-0.734C-6.454,-0.734 -6.54,-0.7 -6.588,-0.633C-6.623,-0.584 -6.652,-0.522 -6.673,-0.456C-7.081,0.547 -7.488,1.541 -7.895,2.531C-8.302,3.521 -8.708,4.518 -9.116,5.519L-9.834,7.276C-10.071,7.854 -10.305,8.441 -10.536,9.034C-10.568,9.111 -10.616,9.23 -10.676,9.391C-10.737,9.55 -10.802,9.711 -10.873,9.875L-11.078,10.344C-11.156,10.519 -11.196,10.586 -11.221,10.619C-11.306,10.751 -11.407,10.838 -11.52,10.874C-11.654,10.916 -11.782,10.949 -11.903,10.97C-12.039,10.993 -12.157,11.029 -12.254,11.078C-12.339,11.121 -12.441,11.22 -12.441,11.449C-12.441,11.536 -12.415,11.617 -12.365,11.688C-12.325,11.745 -12.249,11.815 -12.11,11.815C-11.861,11.815 -11.625,11.8 -11.411,11.771C-10.917,11.707 -10.28,11.724 -9.677,11.789C-9.306,11.827 -8.941,11.847 -8.593,11.847C-8.479,11.847 -8.379,11.808 -8.293,11.73C-8.208,11.651 -8.162,11.549 -8.162,11.433C-8.162,11.22 -8.284,11.076 -8.506,11.029C-8.678,10.99 -8.874,10.961 -9.103,10.935C-9.308,10.915 -9.497,10.872 -9.664,10.81C-9.749,10.778 -9.863,10.706 -9.863,10.459C-9.863,10.439 -9.852,10.357 -9.759,10.024C-9.688,9.77 -9.59,9.455 -9.471,9.087C-9.351,8.718 -9.204,8.3 -9.035,7.845C-8.875,7.416 -8.697,6.97 -8.504,6.519C-8.376,6.494 -8.218,6.476 -8.035,6.467C-7.599,6.444 -7.141,6.447 -6.722,6.459C-6.507,6.464 -6.332,6.467 -6.201,6.467L-5.887,6.467C-5.712,6.467 -5.532,6.475 -5.353,6.491C-5.2,6.505 -5.087,6.549 -5.017,6.619C-5.014,6.623 -4.995,6.646 -4.948,6.752C-4.909,6.842 -4.861,6.943 -4.808,7.048C-4.643,7.444 -4.484,7.83 -4.33,8.203C-4.176,8.576 -4.038,8.917 -3.918,9.224L-3.604,10.025C-3.52,10.243 -3.459,10.409 -3.425,10.522L-3.392,10.626C-3.383,10.658 -3.38,10.684 -3.38,10.706C-3.38,10.888 -3.464,10.935 -3.538,10.956C-3.684,10.998 -3.847,11.024 -4.036,11.035C-4.231,11.046 -4.408,11.062 -4.564,11.085C-4.841,11.125 -4.882,11.299 -4.882,11.399C-4.882,11.527 -4.829,11.64 -4.731,11.723C-4.637,11.805 -4.525,11.847 -4.401,11.847C-4.013,11.847 -3.624,11.83 -3.246,11.798C-2.611,11.742 -1.971,11.715 -1.328,11.798C-1.062,11.83 -0.791,11.847 -0.522,11.847L-0.341,11.847C-0.222,11.847 -0.098,11.826 0.03,11.784C0.24,11.713 0.271,11.565 0.271,11.482C0.271,11.295 0.175,11.164 0,11.113M-5.344,5.537C-5.364,5.542 -5.381,5.547 -5.395,5.555C-6.071,5.555 -6.596,5.558 -6.969,5.563C-7.348,5.569 -7.631,5.572 -7.817,5.572L-8.112,5.572L-7.626,4.407C-7.483,4.066 -7.355,3.758 -7.245,3.482C-7.136,3.208 -7.026,2.941 -6.916,2.684C-6.828,2.477 -6.726,2.241 -6.61,1.974C-6.587,2.035 -6.556,2.116 -6.518,2.223C-6.424,2.488 -6.312,2.809 -6.181,3.189C-6.047,3.568 -5.905,3.976 -5.75,4.411C-5.611,4.807 -5.474,5.182 -5.344,5.537" style="fill:rgb(44,86,150);fill-rule:nonzero;"/>
        </g>
        <g transform="matrix(4.16667,0,0,4.16667,922.066,45.4074)">
            <path d="M0,11.635C-0.118,11.61 -0.235,11.571 -0.371,11.511C-0.814,11.416 -1.209,11.216 -1.547,10.915C-1.891,10.609 -2.207,10.247 -2.488,9.836C-2.768,9.426 -3.027,8.984 -3.255,8.52C-3.486,8.053 -3.704,7.61 -3.908,7.193C-4.118,6.762 -4.32,6.404 -4.526,6.098C-4.687,5.86 -4.85,5.687 -5.021,5.574C-4.794,5.46 -4.559,5.326 -4.324,5.176C-4.03,4.987 -3.757,4.766 -3.514,4.518C-3.271,4.27 -3.071,3.986 -2.918,3.675C-2.763,3.358 -2.685,3.013 -2.685,2.647C-2.685,1.985 -2.811,1.429 -3.062,0.996C-3.311,0.566 -3.626,0.219 -4,-0.035C-4.371,-0.288 -4.777,-0.466 -5.207,-0.561C-5.63,-0.656 -6.031,-0.704 -6.401,-0.704C-6.828,-0.704 -7.253,-0.696 -7.667,-0.68C-8.077,-0.663 -8.501,-0.655 -8.926,-0.655L-10.362,-0.655C-10.479,-0.655 -10.6,-0.661 -10.725,-0.671C-10.99,-0.693 -11.248,-0.699 -11.482,-0.644C-11.576,-0.622 -11.733,-0.544 -11.733,-0.273C-11.733,-0.132 -11.663,-0.028 -11.535,0.02C-11.439,0.056 -11.315,0.08 -11.17,0.091C-11.033,0.102 -10.887,0.113 -10.732,0.125C-10.588,0.135 -10.449,0.163 -10.322,0.209C-10.202,0.253 -10.106,0.325 -10.031,0.43C-9.956,0.533 -9.918,0.685 -9.918,0.882C-9.918,1.801 -9.926,2.739 -9.942,3.67C-9.958,4.601 -9.967,5.54 -9.967,6.461L-9.967,9.861C-9.967,10.07 -10.005,10.234 -10.082,10.349C-10.162,10.467 -10.264,10.563 -10.386,10.63C-10.514,10.701 -10.65,10.75 -10.793,10.775C-10.945,10.804 -11.091,10.828 -11.228,10.849C-11.367,10.873 -11.486,10.898 -11.58,10.928C-11.757,10.983 -11.783,11.11 -11.783,11.181C-11.783,11.378 -11.748,11.488 -11.67,11.539C-11.607,11.578 -11.505,11.596 -11.336,11.596C-10.995,11.596 -10.65,11.579 -10.31,11.546C-9.608,11.476 -8.865,11.483 -8.144,11.554C-7.756,11.593 -7.352,11.612 -6.946,11.612C-6.711,11.612 -6.54,11.594 -6.42,11.558C-6.332,11.531 -6.184,11.447 -6.184,11.181C-6.184,11.048 -6.253,10.952 -6.372,10.92C-6.455,10.895 -6.548,10.882 -6.648,10.882C-6.715,10.882 -6.736,10.875 -6.736,10.875L-6.76,10.867C-6.986,10.822 -7.183,10.79 -7.362,10.766C-7.525,10.747 -7.666,10.706 -7.781,10.646C-7.889,10.59 -7.972,10.501 -8.034,10.378C-8.098,10.248 -8.131,10.046 -8.131,9.778L-8.131,6.378C-8.131,6.057 -8.093,5.941 -8.07,5.9C-8.057,5.876 -7.997,5.818 -7.754,5.818C-7.381,5.818 -7.066,5.912 -6.815,6.096C-6.555,6.287 -6.324,6.531 -6.129,6.823C-5.933,7.115 -5.752,7.45 -5.594,7.821C-5.435,8.194 -5.259,8.562 -5.075,8.906C-4.741,9.774 -4.247,10.52 -3.605,11.122C-2.961,11.727 -2.153,12.119 -1.198,12.288C-1.12,12.299 -1.026,12.31 -0.914,12.321C-0.801,12.332 -0.688,12.339 -0.574,12.339C-0.286,12.339 -0.08,12.315 0.054,12.266L0.091,12.243C0.214,12.121 0.27,12.019 0.27,11.924C0.27,11.838 0.235,11.685 0,11.635M-4.799,3.85C-4.951,4.17 -5.162,4.422 -5.426,4.603C-5.693,4.787 -6.017,4.915 -6.385,4.983C-6.764,5.053 -7.174,5.088 -7.605,5.088C-7.791,5.088 -7.927,5.074 -8.008,5.046C-8.093,5.016 -8.118,4.972 -8.129,4.94C-8.153,4.878 -8.162,4.794 -8.156,4.691C-8.151,4.574 -8.147,4.431 -8.147,4.265C-8.147,3.826 -8.143,3.331 -8.131,2.783C-8.12,2.232 -8.115,1.735 -8.115,1.294L-8.115,0.733C-8.115,0.495 -8.062,0.315 -7.958,0.198C-7.889,0.12 -7.715,0.026 -7.275,0.026C-6.88,0.026 -6.514,0.082 -6.185,0.193C-5.861,0.304 -5.575,0.468 -5.338,0.683C-5.102,0.9 -4.912,1.169 -4.776,1.483C-4.639,1.801 -4.57,2.177 -4.57,2.599C-4.57,3.108 -4.647,3.529 -4.799,3.85" style="fill:rgb(44,86,150);fill-rule:nonzero;"/>
        </g>
        <g transform="matrix(4.16667,0,0,4.16667,967.708,93.72)">
            <path d="M0,-12.877C-0.064,-12.877 -0.156,-12.85 -0.234,-12.723C-0.277,-12.652 -0.329,-12.576 -0.394,-12.49C-0.454,-12.41 -0.527,-12.331 -0.611,-12.257C-0.684,-12.194 -0.778,-12.152 -0.888,-12.134C-1.05,-12.112 -1.216,-12.099 -1.381,-12.093C-2.099,-12.071 -2.766,-12.082 -3.41,-12.069C-4.498,-12.044 -5.775,-12.048 -6.962,-12.077C-7.626,-12.093 -8.309,-12.117 -8.989,-12.151C-9.133,-12.16 -9.246,-12.192 -9.325,-12.249C-9.409,-12.308 -9.477,-12.37 -9.525,-12.434C-9.579,-12.504 -9.625,-12.565 -9.663,-12.621C-9.737,-12.724 -9.825,-12.745 -9.886,-12.745C-10.056,-12.745 -10.19,-12.7 -10.285,-12.611C-10.374,-12.528 -10.441,-12.422 -10.485,-12.298C-10.526,-12.181 -10.552,-12.047 -10.564,-11.903L-10.597,-11.515C-10.652,-10.953 -10.722,-10.511 -10.808,-10.203C-10.899,-9.878 -10.943,-9.624 -10.943,-9.426C-10.943,-9.272 -10.905,-9.164 -10.824,-9.1C-10.75,-9.041 -10.648,-9.012 -10.512,-9.012C-10.424,-9.012 -10.345,-9.088 -10.22,-9.292C-10.12,-9.458 -10.022,-9.635 -9.929,-9.817C-9.838,-9.991 -9.753,-10.16 -9.672,-10.321L-9.647,-10.371C-9.543,-10.578 -9.484,-10.659 -9.453,-10.69C-9.247,-10.886 -9.029,-11.02 -8.808,-11.087C-8.583,-11.155 -8.346,-11.19 -8.104,-11.19L-7.079,-11.19C-6.819,-11.19 -6.575,-11.171 -6.354,-11.133C-6.148,-11.099 -6.065,-11.045 -6.056,-11.006C-6.047,-10.96 -6.04,-10.865 -6.034,-10.719C-6.029,-10.571 -6.026,-10.47 -6.026,-10.416L-6.026,-2.428C-6.026,-2.127 -6.042,-1.871 -6.073,-1.669C-6.104,-1.476 -6.165,-1.315 -6.254,-1.191C-6.341,-1.071 -6.473,-0.974 -6.647,-0.904C-6.828,-0.832 -7.077,-0.778 -7.402,-0.744C-7.426,-0.737 -7.478,-0.73 -7.592,-0.73C-7.712,-0.73 -7.83,-0.709 -7.943,-0.665C-8.039,-0.627 -8.154,-0.536 -8.154,-0.316C-8.154,-0.071 -7.994,-0.025 -7.924,-0.017C-7.828,-0.006 -7.733,0 -7.641,0C-7.245,0 -6.846,-0.013 -6.453,-0.042C-5.668,-0.098 -4.764,-0.092 -3.975,-0.041C-3.54,-0.013 -3.097,0 -2.656,0C-2.519,0 -2.4,-0.006 -2.313,-0.018C-2.178,-0.036 -2.11,-0.164 -2.11,-0.397C-2.11,-0.505 -2.16,-0.691 -2.488,-0.729L-3.141,-0.804C-3.373,-0.83 -3.595,-0.893 -3.802,-0.994C-3.992,-1.083 -4.108,-1.261 -4.159,-1.539C-4.191,-1.708 -4.209,-1.881 -4.215,-2.052C-4.22,-2.226 -4.222,-2.402 -4.222,-2.574C-4.201,-3.547 -4.204,-4.527 -4.231,-5.485C-4.259,-6.427 -4.262,-7.403 -4.24,-8.384L-4.206,-10.399C-4.206,-10.646 -4.193,-10.831 -4.167,-10.948C-4.137,-11.087 -4.099,-11.141 -4.079,-11.162C-4.053,-11.188 -4.029,-11.201 -3.986,-11.199C-3.841,-11.185 -3.681,-11.187 -3.428,-11.199C-3.121,-11.212 -2.705,-11.211 -2.292,-11.182C-2.047,-11.166 -1.814,-11.138 -1.601,-11.101C-1.391,-11.063 -1.209,-11.005 -1.061,-10.929C-0.924,-10.859 -0.832,-10.767 -0.787,-10.659C-0.726,-10.509 -0.701,-10.346 -0.711,-10.175C-0.722,-9.989 -0.735,-9.817 -0.751,-9.659C-0.769,-9.487 -0.767,-9.346 -0.742,-9.231C-0.723,-9.143 -0.656,-8.995 -0.412,-8.995C-0.198,-8.995 -0.046,-9.142 0.04,-9.43C0.112,-9.672 0.169,-9.967 0.208,-10.306C0.245,-10.627 0.279,-10.97 0.307,-11.324C0.335,-11.66 0.385,-11.932 0.459,-12.131C0.511,-12.274 0.508,-12.43 0.45,-12.595C0.406,-12.724 0.291,-12.877 0,-12.877" style="fill:rgb(44,86,150);fill-rule:nonzero;"/>
        </g>
        <g transform="matrix(4.16667,0,0,4.16667,1032.06,94.8616)">
            <path d="M0,-12.518L-0.034,-12.524C-0.327,-12.524 -0.63,-12.515 -0.932,-12.499C-1.509,-12.467 -2.097,-12.463 -2.675,-12.506C-2.972,-12.53 -3.266,-12.541 -3.55,-12.541C-3.647,-12.541 -3.74,-12.528 -3.825,-12.503C-3.896,-12.483 -4.015,-12.418 -4.015,-12.209C-4.015,-11.969 -3.901,-11.853 -3.807,-11.799C-3.692,-11.733 -3.554,-11.684 -3.395,-11.655C-3.245,-11.628 -3.093,-11.602 -2.938,-11.581C-2.802,-11.561 -2.692,-11.513 -2.611,-11.44C-2.53,-11.369 -2.474,-11.225 -2.445,-11.015C-2.413,-10.785 -2.397,-10.52 -2.397,-10.228C-2.397,-9.932 -2.402,-9.625 -2.413,-9.307C-2.424,-8.987 -2.429,-8.7 -2.429,-8.445L-2.429,-4.913C-2.429,-4.595 -2.462,-4.28 -2.527,-3.973C-2.624,-3.424 -2.76,-2.958 -2.932,-2.587C-3.102,-2.221 -3.324,-1.919 -3.592,-1.689C-3.859,-1.458 -4.189,-1.29 -4.574,-1.19C-4.964,-1.088 -5.441,-1.036 -5.993,-1.036C-6.454,-1.036 -6.879,-1.086 -7.255,-1.182C-7.622,-1.276 -7.943,-1.445 -8.21,-1.687C-8.479,-1.929 -8.697,-2.266 -8.861,-2.689C-9.027,-3.116 -9.133,-3.673 -9.176,-4.342C-9.198,-4.672 -9.211,-5.006 -9.218,-5.361C-9.223,-5.701 -9.225,-6.041 -9.225,-6.382L-9.225,-9.419C-9.225,-9.583 -9.223,-9.759 -9.218,-9.945C-9.211,-10.129 -9.201,-10.309 -9.184,-10.482C-9.168,-10.656 -9.15,-10.814 -9.128,-10.955C-9.107,-11.09 -9.082,-11.193 -9.053,-11.26C-8.988,-11.408 -8.881,-11.503 -8.728,-11.55C-8.546,-11.605 -8.365,-11.648 -8.187,-11.68C-7.997,-11.713 -7.824,-11.752 -7.672,-11.797C-7.479,-11.855 -7.377,-11.992 -7.377,-12.191C-7.377,-12.364 -7.478,-12.476 -7.66,-12.506C-7.799,-12.53 -7.913,-12.541 -8.006,-12.541C-8.391,-12.541 -8.773,-12.524 -9.146,-12.49C-9.837,-12.429 -10.592,-12.422 -11.306,-12.49C-11.656,-12.524 -12.011,-12.541 -12.363,-12.541C-12.637,-12.541 -12.794,-12.389 -12.794,-12.126C-12.794,-12.016 -12.749,-11.924 -12.662,-11.862C-12.59,-11.81 -12.503,-11.774 -12.408,-11.754C-12.322,-11.737 -12.235,-11.726 -12.148,-11.719C-12.061,-11.713 -11.992,-11.711 -11.935,-11.711L-11.753,-11.711C-11.562,-11.711 -11.418,-11.66 -11.322,-11.561C-11.217,-11.45 -11.144,-11.321 -11.099,-11.165C-11.053,-11.005 -11.026,-10.828 -11.02,-10.638C-11.015,-10.441 -11.012,-10.266 -11.012,-10.113C-11.012,-9.174 -11.023,-8.242 -11.045,-7.342C-11.067,-6.415 -11.078,-5.481 -11.078,-4.567L-11.078,-3.956C-11.078,-3.855 -11.075,-3.754 -11.07,-3.653C-11.064,-3.552 -11.056,-3.452 -11.044,-3.352C-10.977,-2.699 -10.811,-2.153 -10.552,-1.725C-10.294,-1.297 -9.955,-0.947 -9.546,-0.686C-9.143,-0.428 -8.676,-0.243 -8.159,-0.135C-7.647,-0.03 -7.103,0.023 -6.537,0.023C-6.062,0.023 -5.568,-0.013 -5.07,-0.084C-4.572,-0.157 -4.082,-0.285 -3.612,-0.462C-3.068,-0.677 -2.642,-0.988 -2.346,-1.387C-2.056,-1.779 -1.834,-2.225 -1.688,-2.714C-1.542,-3.196 -1.455,-3.712 -1.428,-4.247C-1.4,-4.783 -1.386,-5.296 -1.386,-5.772C-1.386,-6.068 -1.389,-6.367 -1.394,-6.664C-1.4,-6.961 -1.403,-7.257 -1.403,-7.554C-1.403,-7.885 -1.404,-8.269 -1.411,-8.711C-1.416,-9.149 -1.416,-9.572 -1.411,-9.979C-1.404,-10.38 -1.386,-10.735 -1.354,-11.033C-1.311,-11.428 -1.242,-11.474 -1.236,-11.478C-1.217,-11.49 -1.152,-11.52 -0.953,-11.547C-0.789,-11.57 -0.618,-11.601 -0.442,-11.639C-0.259,-11.68 -0.096,-11.735 0.044,-11.805C0.253,-11.91 0.298,-12.064 0.298,-12.175C0.298,-12.283 0.246,-12.43 0,-12.518" style="fill:rgb(44,86,150);fill-rule:nonzero;"/>
        </g>
    </g>
</svg>
